<svg width="123" height="123" viewBox="0 0 123 123" fill="none" xmlns="http://www.w3.org/2000/svg">
<path d="M34.7781 118.148C31.8937 117.005 30.7529 114.511 30.2211 111.781C28.1289 101.035 29.3438 90.7971 35.3528 81.4087C37.0809 78.709 39.2059 76.3644 42.0433 74.7601C44.5958 73.3166 47.0297 73.2618 49.4904 75.0997C52.6468 77.4567 56.1822 78.7319 60.21 78.4983C62.3933 78.3712 64.5958 78.5554 66.7778 78.4184C69.7413 78.2325 72.3427 76.9476 74.692 75.2276C77.1702 73.4132 79.3663 72.7923 83.1534 75.2739C86.7705 77.644 89.1685 81.0941 91.023 84.9109C95.2998 93.713 96.13 102.927 93.9329 112.405C93.5916 113.878 92.7268 115.289 91.8529 116.555C91.3603 117.269 90.355 117.628 89.5803 118.148H87.3885C83.7643 117.031 81.2095 114.549 79.0212 111.598C78.782 111.276 78.5525 110.945 78.3028 110.632C75.3961 106.983 71.6281 105.052 66.9453 105.003C63.9505 104.972 60.9548 105.022 57.96 104.992C52.7485 104.938 48.6447 107.05 45.5946 111.245C43.3477 114.335 40.7531 116.981 36.9702 118.148H34.7781ZM78.5695 88.416H72.1293V94.8585H78.5695V88.416ZM45.784 94.8342H52.2631V88.4016H45.784V94.8342ZM13 58.7891H39.4004C39.4004 59.7807 39.3462 60.7543 39.4114 61.7198C39.5467 63.7226 39.7666 65.7197 39.8963 67.7224C39.9164 68.0365 39.7382 68.5406 39.4981 68.6686C33.7587 71.7321 30.1235 76.6693 27.3163 82.327C26.4597 84.0539 25.7727 85.8645 24.95 87.7718C17.7551 79.4429 13.8496 69.8249 13 58.7891ZM85.1058 58.8098H111.344C110.526 69.809 106.6 79.4173 99.4481 87.7369C98.394 85.42 97.4885 83.1545 96.3592 81.0067C93.8971 76.3229 90.7755 72.1386 86.1029 69.4525C84.6986 68.645 84.3008 67.8806 84.5277 66.3396C84.8403 64.2155 84.8632 62.0488 85.0124 59.9009C85.037 59.5449 85.073 59.1899 85.1058 58.8098ZM78.5482 58.8433C78.3439 61.4888 78.1589 64.0969 77.9091 66.6988C77.8887 66.9132 77.4458 67.2231 77.1718 67.2553C75.015 67.5069 73.0882 68.2981 71.3513 69.5827C69.1101 71.2403 66.6734 72.2069 63.8083 71.9227C62.5793 71.8008 61.3205 71.8137 60.0887 71.9208C57.6178 72.1366 55.4834 71.3237 53.5395 69.9244C51.5808 68.5145 49.4999 67.4697 47.0541 67.2389C46.8192 67.2168 46.4554 66.82 46.4316 66.5706C46.191 64.0316 46.0083 61.4871 45.8017 58.8433H78.5482ZM111.328 52.1208H85.3915C84.6795 45.8952 83.9696 39.6904 83.2494 33.3954C89.6782 31.9868 96.0873 29.9699 102.044 26.3355C107.58 34.0459 110.602 42.6177 111.328 52.1208ZM22.3449 26.2726C28.271 29.93 34.6778 31.9639 41.1094 33.3885C40.3887 39.6698 39.6787 45.854 38.9602 52.1182L13.0431 52.1181C13.716 42.6435 16.7879 34.0821 22.3449 26.2726ZM76.451 34.61C77.742 40.4108 78.3471 46.1961 78.5315 52.1076H45.7346C45.9788 49.0709 46.1384 46.0895 46.4808 43.1296C46.77 40.6333 47.3278 38.1689 47.6533 35.6757C47.7891 34.6369 48.2816 34.6234 49.1171 34.6721C54.3236 34.975 59.5313 35.3851 64.742 35.4353C68.2317 35.4686 71.7267 34.9651 75.2195 34.7016C75.5801 34.6747 75.941 34.6481 76.451 34.61ZM74.6624 28.1583C66.284 29.1965 58.0704 29.2164 49.7209 28.0796C50.9914 24.2508 52.5101 20.6482 54.8841 17.4766C55.7515 16.3179 56.7491 15.213 57.8572 14.2865C60.7193 11.893 63.6339 11.8663 66.4772 14.2792C67.7681 15.3746 68.9058 16.7072 69.8964 18.0878C72.0582 21.1008 73.4524 24.5051 74.6624 28.1583ZM81.588 27.0073C79.9894 23.5134 78.624 20.131 76.9135 16.9333C75.8077 14.8664 74.3161 12.9677 72.7836 11.177C70.5626 8.58268 67.7451 6.81437 64.3659 6.02516C77.4448 6.73501 88.529 11.8035 97.7967 21.2018C92.6226 24.1946 87.1096 25.8475 81.588 27.0073ZM42.893 26.9803C37.2742 25.7732 31.7784 24.1373 26.6149 21.1561C35.854 11.8012 46.9266 6.73171 59.987 6C53.1909 7.77895 49.4477 12.855 46.4762 18.6611C45.1222 21.3065 44.109 24.1262 42.893 26.9803Z" fill="black"/>
</svg>
