<svg width="260" height="260" viewBox="0 0 260 260" fill="none" xmlns="http://www.w3.org/2000/svg">
<g clip-path="url(#clip0)">
<rect width="260" height="260" rx="38" fill="white"/>
<g filter="url(#filter0_d)">
<path d="M130 249C198.483 249 254 193.483 254 125C254 56.5167 198.483 1 130 1C61.5167 1 6 56.5167 6 125C6 193.483 61.5167 249 130 249Z" fill="url(#paint0_linear)"/>
</g>
<path d="M130 239.7C193.347 239.7 244.7 188.347 244.7 125C244.7 61.653 193.347 10.3 130 10.3C66.653 10.3 15.3 61.653 15.3 125C15.3 188.347 66.653 239.7 130 239.7Z" fill="url(#paint1_radial)"/>
<path d="M130.194 38.2002C129.419 38.2002 128.741 37.6192 128.741 36.8442V16.5972C128.741 15.8222 129.419 15.2412 130.194 15.2412C130.969 15.2412 131.647 15.8222 131.647 16.5972V36.8442C131.55 37.6192 130.969 38.2002 130.194 38.2002Z" fill="#F3F3F3"/>
<path d="M130.194 38.297C129.322 38.297 128.644 37.619 128.644 36.844V16.597C128.644 15.822 129.322 15.144 130.194 15.144C131.066 15.144 131.744 15.822 131.744 16.597V36.844C131.744 37.619 130.969 38.297 130.194 38.297ZM130.194 15.337C129.516 15.337 128.838 15.919 128.838 16.597V36.844C128.838 37.522 129.419 38.104 130.194 38.104C130.872 38.104 131.55 37.522 131.55 36.844V16.597C131.454 15.919 130.872 15.337 130.194 15.337V15.337Z" fill="white"/>
<path d="M139.882 27.35C139.107 27.253 138.526 26.672 138.526 25.897L139.204 16.887C139.3 16.113 139.979 15.531 140.754 15.628C141.529 15.725 142.11 16.307 142.11 17.082L141.432 26.091C141.335 26.866 140.657 27.447 139.882 27.351V27.35Z" fill="#F3F3F3"/>
<path d="M139.882 27.4471C139.01 27.3501 138.429 26.6721 138.429 25.8971L139.107 16.8871C139.204 16.1131 139.882 15.4351 140.754 15.5311C141.625 15.6281 142.207 16.3071 142.207 17.0811L141.529 26.0911C141.432 26.9631 140.754 27.5441 139.882 27.4471ZM140.754 15.7251C140.076 15.7251 139.397 16.2101 139.397 16.8881L138.719 25.8981C138.719 26.5751 139.204 27.1571 139.979 27.2531C140.657 27.2531 141.335 26.7691 141.335 26.0911L142.013 17.0811C142.013 16.4031 141.432 15.8221 140.753 15.7251H140.754Z" fill="white"/>
<path d="M147.148 39.9441C146.372 39.7501 145.888 39.0721 145.985 38.2971L149.957 18.4371C150.151 17.6631 150.829 17.1781 151.604 17.3721C152.379 17.5661 152.863 18.2441 152.766 19.0191L148.794 38.8791C148.697 39.5561 147.922 40.0411 147.147 39.9441H147.148Z" fill="#F3F3F3"/>
<path d="M147.148 40.0412C146.275 39.8472 145.791 39.0722 145.888 38.2972L149.86 18.4372C150.054 17.6632 150.829 17.0812 151.7 17.2752C152.572 17.4692 153.057 18.2442 152.96 19.0192L148.988 38.8792C148.794 39.6532 148.019 40.1382 147.148 40.0412ZM151.7 17.4692C151.022 17.3722 150.344 17.7592 150.15 18.4382L146.179 38.2982C146.082 38.9752 146.469 39.6532 147.244 39.8482C147.922 39.9442 148.6 39.5562 148.794 38.8782L152.766 19.0192C152.863 18.2442 152.379 17.6632 151.7 17.4692V17.4692Z" fill="white"/>
<path d="M158.772 31.2251C158.587 31.1806 158.413 31.1002 158.26 30.9885C158.107 30.8767 157.977 30.7358 157.878 30.5738C157.779 30.4119 157.713 30.232 157.684 30.0445C157.654 29.857 157.662 29.6655 157.707 29.4811L160.129 20.7631C160.322 19.9881 161.097 19.6001 161.872 19.7941C162.647 19.9881 163.132 20.7631 162.938 21.5381L160.516 30.2571C160.322 31.0311 159.547 31.4191 158.772 31.2251Z" fill="#F3F3F3"/>
<path d="M158.772 31.3221C157.997 31.1281 157.416 30.2561 157.707 29.4821L160.129 20.7621C160.322 19.9881 161.194 19.5031 161.969 19.6971C162.744 19.8911 163.325 20.7631 163.035 21.5371L160.613 30.2571C160.419 31.0311 159.644 31.5161 158.773 31.3221H158.772ZM161.969 19.9881C161.291 19.7941 160.516 20.1821 160.322 20.8601L157.901 29.5781C157.707 30.2561 158.094 30.9351 158.869 31.1281C159.547 31.3221 160.322 30.9351 160.516 30.2571L162.938 21.5371C163.035 20.8601 162.648 20.1821 161.969 19.9871V19.9881Z" fill="white"/>
<path d="M163.519 44.885C162.744 44.594 162.454 43.7221 162.744 43.0441L170.494 24.3471C170.784 23.6691 171.657 23.281 172.334 23.669C173.11 23.959 173.401 24.832 173.11 25.509L165.36 44.206C165.07 44.885 164.197 45.272 163.52 44.885H163.519Z" fill="#F3F3F3"/>
<path d="M163.519 44.9821C163.147 44.8403 162.846 44.5566 162.683 44.1933C162.519 43.8301 162.506 43.4168 162.647 43.0441L170.397 24.3471C170.688 23.5721 171.56 23.2811 172.432 23.5721C172.804 23.714 173.105 23.9976 173.269 24.3609C173.432 24.7242 173.445 25.1375 173.304 25.5101L165.554 44.2071C165.166 44.9821 164.294 45.3691 163.519 44.9821ZM172.335 23.7661C171.657 23.4761 170.882 23.7661 170.591 24.4441L162.841 43.1411C162.551 43.8191 162.938 44.4971 163.616 44.7881C164.294 45.0781 165.069 44.7881 165.36 44.1101L173.11 25.4131C173.304 24.8311 173.013 24.0561 172.335 23.7661V23.7661Z" fill="white"/>
<path d="M176.598 38.6851C175.919 38.2971 175.628 37.5221 175.919 36.8441L179.988 28.8041C180.375 28.1251 181.15 27.8341 181.926 28.2221C182.604 28.6101 182.894 29.3851 182.604 30.0621L178.534 38.1031C178.147 38.7811 177.372 39.0731 176.597 38.6851H176.598Z" fill="#F3F3F3"/>
<path d="M176.598 38.7821C175.822 38.3941 175.532 37.5221 175.919 36.7471L179.988 28.7071C180.375 27.9311 181.248 27.6411 182.022 28.0281C182.797 28.4161 183.088 29.2881 182.7 30.0631L178.632 38.1031C178.244 38.8781 177.372 39.1691 176.597 38.7811L176.598 38.7821ZM181.926 28.2221C181.247 27.9321 180.472 28.1251 180.182 28.8031L176.113 36.8441C175.823 37.4251 176.113 38.2001 176.694 38.5881C177.372 38.8781 178.147 38.6851 178.438 38.0071L182.507 29.9661C182.797 29.3851 182.507 28.6101 181.926 28.2221Z" fill="white"/>
<path d="M178.535 53.0222C177.857 52.5382 177.663 51.6662 178.147 51.0852L189.385 34.3252C189.772 33.6472 190.645 33.5502 191.322 33.9382C192.001 34.4222 192.194 35.2942 191.71 35.8752L180.472 52.6352C180.085 53.3132 179.213 53.5072 178.535 53.0222Z" fill="#F3F3F3"/>
<path d="M178.535 53.1192C177.857 52.6352 177.663 51.6662 178.051 50.9882L189.288 34.2282C189.772 33.5502 190.644 33.3562 191.419 33.8412C192.097 34.3252 192.291 35.2942 191.904 35.9722L180.666 52.7322C180.182 53.4102 179.213 53.6032 178.535 53.1192ZM191.322 34.0352C190.742 33.6472 189.869 33.7442 189.482 34.3252L178.244 51.0852C177.857 51.6652 178.05 52.4412 178.632 52.8282C179.213 53.2162 180.085 53.1192 180.472 52.5382L191.71 35.8752C192.097 35.2942 191.904 34.4222 191.322 34.0352V34.0352Z" fill="white"/>
<path d="M192.678 49.4381C192.098 48.9531 191.904 48.0811 192.388 47.5001L198.007 40.4281C198.491 39.8481 199.363 39.7501 199.944 40.2351C200.526 40.7191 200.719 41.5911 200.234 42.1721L194.616 49.2441C194.132 49.8251 193.26 49.9221 192.679 49.4381H192.678Z" fill="#F3F3F3"/>
<path d="M192.582 49.535C191.904 49.05 191.807 48.081 192.292 47.403L197.91 40.332C198.394 39.653 199.363 39.556 200.041 40.138C200.719 40.622 200.816 41.591 200.331 42.269L194.713 49.341C194.229 50.019 193.26 50.116 192.582 49.535V49.535ZM199.847 40.331C199.267 39.847 198.491 39.944 198.007 40.525L192.388 47.597C192.001 48.178 192.098 48.953 192.678 49.437C193.26 49.922 194.035 49.825 194.519 49.244L200.138 42.172C200.526 41.591 200.428 40.719 199.848 40.332L199.847 40.331Z" fill="white"/>
<path d="M191.71 63.9692C191.129 63.3882 191.129 62.5162 191.71 62.0312L206.047 47.7912C206.629 47.2102 207.5 47.3062 207.985 47.7912C208.469 48.2752 208.566 49.2442 207.985 49.7282L193.745 63.9692C193.163 64.5502 192.291 64.5502 191.71 63.9692V63.9692Z" fill="#F3F3F3"/>
<path d="M191.613 64.066C191.334 63.7818 191.177 63.3991 191.177 63.0005C191.177 62.6019 191.334 62.2193 191.613 61.935L205.95 47.694C206.234 47.4143 206.617 47.2576 207.016 47.2576C207.415 47.2576 207.798 47.4143 208.082 47.694C208.361 47.9783 208.518 48.3609 208.518 48.7595C208.518 49.1581 208.361 49.5408 208.082 49.825L193.744 64.065C193.46 64.3444 193.077 64.501 192.678 64.501C192.28 64.501 191.897 64.3444 191.613 64.065V64.066ZM207.985 47.791C207.501 47.306 206.629 47.306 206.145 47.791L191.807 62.031C191.322 62.516 191.322 63.388 191.807 63.872C192.291 64.357 193.163 64.357 193.647 63.872L207.985 49.632C208.469 49.147 208.469 48.372 207.985 47.791Z" fill="white"/>
<path d="M206.241 63.1941C205.757 62.6132 205.757 61.7412 206.338 61.2562L213.216 55.4442C213.797 54.9602 214.669 55.0562 215.154 55.6382C215.638 56.2192 215.638 57.0912 215.057 57.5752L208.179 63.3882C207.597 63.8722 206.725 63.7751 206.241 63.1941Z" fill="#F3F3F3"/>
<path d="M206.144 63.2912C205.563 62.6132 205.66 61.6442 206.241 61.1602L213.119 55.3472C213.7 54.7662 214.669 54.8632 215.25 55.5412C215.832 56.2192 215.735 57.1882 215.154 57.6722L208.275 63.4852C207.695 64.0652 206.725 63.9692 206.145 63.2912H206.144ZM215.057 55.6382C214.572 55.0572 213.797 55.0572 213.217 55.4442L206.338 61.2572C205.854 61.7412 205.757 62.5162 206.241 63.0972C206.725 63.6782 207.501 63.6782 208.081 63.2912L214.96 57.4782C215.541 56.9942 215.541 56.2192 215.057 55.6382Z" fill="white"/>
<path d="M202.366 77.1442C201.882 76.4662 202.076 75.5942 202.754 75.2062L219.61 63.9692C220.288 63.5812 221.16 63.7752 221.547 64.3572C222.032 65.0352 221.838 65.9072 221.16 66.2942L204.304 77.5312C203.722 77.9192 202.85 77.7252 202.366 77.1442V77.1442Z" fill="#F3F3F3"/>
<path d="M202.269 77.1442C201.785 76.4662 201.979 75.4972 202.657 75.0132L219.513 63.7752C220.191 63.2912 221.16 63.4852 221.644 64.2602C222.129 64.9382 221.934 65.9072 221.257 66.3902L204.401 77.6292C203.722 78.1142 202.754 77.9202 202.269 77.1452V77.1442ZM221.45 64.4542C221.063 63.8722 220.288 63.6782 219.707 64.0662L202.85 75.3032C202.27 75.6912 202.075 76.4662 202.56 77.1442C202.947 77.7252 203.722 77.9192 204.304 77.5322L221.16 66.2942C221.741 65.8102 221.838 65.0342 221.45 64.4542Z" fill="white"/>
<path d="M216.801 79.1792C216.413 78.5002 216.607 77.6292 217.285 77.2412L225.132 72.7852C225.81 72.3972 226.682 72.6882 227.069 73.3652C227.457 74.0442 227.263 74.9152 226.585 75.3032L218.738 79.7602C218.06 80.1472 217.188 79.8572 216.8 79.1782L216.801 79.1792Z" fill="#F3F3F3"/>
<path d="M216.704 79.2752C216.316 78.5002 216.51 77.6282 217.188 77.2412L225.035 72.7852C225.713 72.3972 226.682 72.6882 227.069 73.3652C227.457 74.1412 227.263 75.0132 226.585 75.4002L218.738 79.8572C218.06 80.2442 217.091 79.9532 216.704 79.2752V79.2752ZM226.972 73.4632C226.585 72.7852 225.81 72.5912 225.229 72.9782L217.382 77.4352C216.801 77.8222 216.607 78.5972 216.897 79.1782C217.285 79.8562 218.06 80.0502 218.641 79.6632L226.488 75.2062C227.069 74.9162 227.263 74.1412 226.972 73.4632V73.4632Z" fill="white"/>
<path d="M210.31 92.0631C210.02 91.2881 210.31 90.5131 211.085 90.2231L229.782 82.4731C230.46 82.1821 231.332 82.5691 231.622 83.2471C231.913 84.0221 231.622 84.7971 230.847 85.0871L212.151 92.8371C211.472 93.1281 210.601 92.8371 210.31 92.0631Z" fill="#F3F3F3"/>
<path d="M210.213 92.159C209.923 91.385 210.213 90.513 210.988 90.125L229.685 82.375C230.058 82.2346 230.471 82.2475 230.834 82.411C231.197 82.5744 231.48 82.875 231.622 83.247C231.913 84.022 231.622 84.894 230.847 85.281L212.151 93.031C211.779 93.1718 211.365 93.1592 211.002 92.9959C210.639 92.8327 210.355 92.5321 210.213 92.16V92.159ZM231.429 83.344C231.138 82.666 230.363 82.375 229.782 82.569L211.085 90.319C210.407 90.609 210.116 91.385 210.407 92.063C210.697 92.741 211.472 93.032 212.054 92.838L230.75 85.088C231.429 84.798 231.72 84.022 231.429 83.344Z" fill="white"/>
<path d="M223.969 96.9072C223.679 96.1312 224.066 95.3572 224.841 95.0662L233.366 92.2562C234.044 91.9662 234.916 92.4502 235.11 93.1282C235.4 93.9032 235.013 94.6782 234.238 94.9692L225.713 97.7792C225.035 98.0692 224.26 97.6822 223.969 96.9062V96.9072Z" fill="#F3F3F3"/>
<path d="M223.872 97.0031C223.582 96.2281 223.969 95.3561 224.842 95.0661L233.366 92.2561C234.141 91.9661 235.013 92.4501 235.304 93.2261C235.594 94.0001 235.207 94.8721 234.334 95.1631L225.81 97.9731C225.035 98.1661 224.163 97.7781 223.872 97.0031ZM235.11 93.3231C234.916 92.6441 234.141 92.2561 233.463 92.4501L224.938 95.2601C224.26 95.4531 223.969 96.2281 224.163 96.9071C224.357 97.5851 225.132 97.9721 225.81 97.7781L234.335 94.9691C235.013 94.6791 235.304 94.0001 235.11 93.3221V93.3231Z" fill="white"/>
<path d="M215.251 108.435C215.057 107.66 215.541 106.885 216.316 106.788L236.176 102.913C236.95 102.719 237.629 103.3 237.822 104.075C238.016 104.85 237.532 105.625 236.757 105.722L216.897 109.597C216.122 109.694 215.347 109.21 215.25 108.435H215.251Z" fill="#F3F3F3"/>
<path d="M215.057 108.435C214.863 107.563 215.444 106.788 216.219 106.594L236.079 102.719C236.854 102.525 237.629 103.107 237.822 103.979C238.016 104.85 237.435 105.625 236.66 105.819L216.8 109.694C216.026 109.888 215.25 109.307 215.057 108.434V108.435ZM237.629 104.075C237.532 103.397 236.854 102.913 236.176 103.01L216.316 106.885C215.638 106.982 215.154 107.756 215.347 108.435C215.444 109.113 216.122 109.597 216.801 109.5L236.66 105.625C237.338 105.431 237.822 104.753 237.629 104.075Z" fill="white"/>
<path d="M227.651 115.894C227.554 115.119 228.038 114.441 228.813 114.344L237.725 113.278C238.5 113.182 239.179 113.763 239.275 114.538C239.372 115.313 238.888 115.991 238.113 116.088L229.2 117.153C228.522 117.25 227.747 116.669 227.65 115.894H227.651Z" fill="#F3F3F3"/>
<path d="M227.554 115.894C227.457 115.022 228.038 114.247 228.813 114.15L237.725 113.085C238.5 112.988 239.275 113.569 239.372 114.441C239.469 115.313 238.888 116.088 238.113 116.185L229.2 117.25C228.426 117.347 227.65 116.766 227.554 115.894ZM239.275 114.538C239.179 113.86 238.501 113.278 237.822 113.375L228.91 114.441C228.232 114.538 227.747 115.216 227.844 115.894C227.941 116.572 228.619 117.154 229.297 117.057L238.21 115.991C238.888 115.894 239.372 115.216 239.276 114.538H239.275Z" fill="white"/>
<path d="M216.801 125.291C216.801 124.516 217.381 123.838 218.157 123.838H238.404C239.179 123.838 239.76 124.516 239.76 125.291C239.76 126.066 239.179 126.744 238.404 126.744H218.157C217.382 126.744 216.801 126.066 216.801 125.291Z" fill="#F3F3F3"/>
<path d="M216.704 125.291C216.704 124.419 217.382 123.741 218.157 123.741H238.404C239.179 123.741 239.857 124.419 239.857 125.291C239.857 126.163 239.179 126.841 238.404 126.841H218.157C217.382 126.841 216.704 126.163 216.704 125.291ZM239.663 125.388C239.663 124.71 239.082 124.032 238.403 124.032H218.158C217.48 124.032 216.898 124.612 216.898 125.388C216.898 126.066 217.48 126.744 218.158 126.744H238.405C239.083 126.647 239.664 126.066 239.664 125.388H239.663Z" fill="white"/>
<path d="M227.554 135.075C227.65 134.3 228.232 133.719 229.007 133.719L238.017 134.397C238.791 134.494 239.372 135.172 239.275 135.947C239.179 136.722 238.597 137.303 237.822 137.303L228.813 136.625C228.135 136.528 227.553 135.85 227.553 135.075H227.554Z" fill="#F3F3F3"/>
<path d="M227.457 135.075C227.554 134.203 228.232 133.622 229.007 133.622L238.017 134.3C238.791 134.397 239.469 135.075 239.372 135.947C239.276 136.819 238.597 137.4 237.822 137.4L228.813 136.722C228.038 136.625 227.457 135.85 227.457 135.075ZM239.276 135.947C239.372 135.269 238.791 134.591 238.113 134.591L229.103 133.913C228.426 133.913 227.844 134.397 227.747 135.173C227.651 135.85 228.232 136.528 228.91 136.528L237.92 137.206C238.597 137.206 239.179 136.626 239.276 135.947V135.947Z" fill="white"/>
<path d="M215.057 142.147C215.251 141.372 215.929 140.887 216.704 140.985L236.563 144.957C237.338 145.15 237.823 145.828 237.629 146.603C237.435 147.378 236.757 147.863 235.982 147.766L216.122 143.794C215.444 143.697 214.96 142.922 215.057 142.147V142.147Z" fill="#F3F3F3"/>
<path d="M214.96 142.147C215.154 141.275 215.929 140.791 216.704 140.887L236.563 144.86C237.338 145.053 237.919 145.828 237.725 146.7C237.532 147.572 236.757 148.057 235.982 147.96L216.122 143.988C215.347 143.794 214.863 143.019 214.96 142.148V142.147ZM237.532 146.7C237.629 146.022 237.242 145.344 236.563 145.15L216.703 141.178C216.026 141.082 215.347 141.469 215.153 142.244C215.057 142.922 215.444 143.6 216.123 143.794L235.982 147.766C236.757 147.863 237.338 147.378 237.532 146.7Z" fill="white"/>
<path d="M223.776 153.772C223.82 153.588 223.901 153.414 224.012 153.261C224.124 153.107 224.265 152.977 224.427 152.879C224.589 152.78 224.768 152.714 224.956 152.684C225.143 152.655 225.335 152.663 225.519 152.707L234.238 155.128C235.013 155.322 235.4 156.098 235.207 156.872C235.163 157.057 235.082 157.231 234.971 157.384C234.859 157.538 234.718 157.668 234.556 157.767C234.394 157.866 234.214 157.932 234.027 157.961C233.839 157.991 233.647 157.983 233.463 157.938L224.744 155.516C223.969 155.322 223.582 154.547 223.775 153.772H223.776Z" fill="#F3F3F3"/>
<path d="M223.678 153.772C223.872 152.997 224.744 152.416 225.519 152.707L234.238 155.128C235.013 155.322 235.498 156.194 235.304 156.969C235.11 157.744 234.238 158.325 233.463 158.035L224.744 155.613C223.969 155.419 223.484 154.644 223.679 153.773L223.678 153.772ZM235.013 156.969C235.207 156.291 234.819 155.516 234.141 155.322L225.422 152.9C224.744 152.706 224.066 153.094 223.872 153.869C223.679 154.547 224.066 155.322 224.744 155.516L233.463 157.938C234.141 158.035 234.819 157.648 235.013 156.969Z" fill="white"/>
<path d="M210.116 158.422C210.406 157.647 211.279 157.356 211.956 157.647L230.654 165.397C231.332 165.687 231.719 166.56 231.429 167.237C231.138 168.013 230.266 168.303 229.588 168.013L210.891 160.263C210.116 159.973 209.825 159.1 210.116 158.423V158.422Z" fill="#F3F3F3"/>
<path d="M210.019 158.325C210.161 157.953 210.444 157.652 210.808 157.488C211.171 157.325 211.584 157.312 211.957 157.453L230.654 165.203C231.429 165.494 231.719 166.366 231.429 167.238C231.287 167.61 231.003 167.911 230.64 168.075C230.277 168.238 229.864 168.251 229.491 168.11L210.794 160.36C210.019 159.972 209.729 159.1 210.019 158.325ZM231.235 167.141C231.525 166.463 231.235 165.688 230.557 165.397L211.86 157.647C211.182 157.357 210.504 157.744 210.213 158.422C209.923 159.1 210.213 159.875 210.891 160.166L229.588 167.916C230.266 168.11 231.041 167.819 231.235 167.141Z" fill="white"/>
<path d="M216.413 171.5C216.801 170.822 217.575 170.531 218.253 170.822L226.294 174.891C226.972 175.181 227.263 176.053 226.876 176.828C226.488 177.506 225.713 177.798 225.035 177.506L216.995 173.438C216.316 173.05 216.025 172.178 216.413 171.5Z" fill="#F3F3F3"/>
<path d="M216.316 171.403C216.704 170.628 217.576 170.338 218.351 170.725L226.391 174.794C227.166 175.182 227.457 176.054 227.069 176.828C226.682 177.603 225.809 177.894 225.035 177.506L216.995 173.438C216.219 173.148 215.929 172.178 216.316 171.403V171.403ZM226.779 176.731C227.069 176.053 226.875 175.278 226.197 174.988L218.157 170.919C217.575 170.629 216.801 170.919 216.413 171.5C216.123 172.178 216.316 172.953 216.994 173.244L225.034 177.313C225.713 177.603 226.488 177.41 226.779 176.731Z" fill="white"/>
<path d="M202.172 173.341C202.657 172.663 203.432 172.469 204.11 172.953L220.966 184.191C221.644 184.578 221.741 185.451 221.354 186.128C220.869 186.807 220.094 187 219.416 186.516L202.56 175.278C201.882 174.794 201.688 173.922 202.172 173.341Z" fill="#F3F3F3"/>
<path d="M202.075 173.244C202.56 172.566 203.529 172.372 204.207 172.76L221.063 183.997C221.741 184.481 221.935 185.353 221.45 186.128C220.966 186.807 219.997 187 219.32 186.613L202.463 175.375C201.688 174.891 201.591 173.922 202.075 173.244ZM221.16 186.031C221.547 185.451 221.45 184.578 220.87 184.191L204.013 172.953C203.432 172.566 202.657 172.76 202.269 173.341C201.882 173.922 201.979 174.794 202.559 175.181L219.416 186.419C219.997 186.807 220.772 186.613 221.16 186.032V186.031Z" fill="white"/>
<path d="M205.757 187.388C206.241 186.806 207.113 186.613 207.694 187.098L214.766 192.619C215.347 193.103 215.444 193.975 214.96 194.557C214.476 195.137 213.604 195.332 213.022 194.847L205.95 189.325C205.37 188.841 205.272 187.969 205.757 187.388V187.388Z" fill="#F3F3F3"/>
<path d="M205.66 187.291C206.144 186.613 207.113 186.516 207.791 187.001L214.863 192.522C215.541 193.006 215.638 193.975 215.153 194.653C214.669 195.332 213.7 195.428 213.023 194.944L205.95 189.422C205.272 188.938 205.176 187.969 205.66 187.291ZM214.96 194.557C215.444 193.975 215.347 193.2 214.766 192.716L207.694 187.194C207.113 186.807 206.338 186.904 205.854 187.484C205.369 188.066 205.466 188.841 206.047 189.325L213.119 194.847C213.7 195.235 214.475 195.137 214.959 194.557H214.96Z" fill="white"/>
<path d="M191.322 186.419C191.904 185.838 192.776 185.838 193.26 186.419L207.597 200.659C208.179 201.241 208.082 202.113 207.597 202.597C207.017 203.178 206.144 203.178 205.66 202.597L191.322 188.357C190.838 187.872 190.838 186.903 191.322 186.419V186.419Z" fill="#F3F3F3"/>
<path d="M191.322 186.322C191.606 186.042 191.989 185.886 192.388 185.886C192.787 185.886 193.17 186.042 193.454 186.322L207.791 200.562C208.071 200.847 208.227 201.229 208.227 201.628C208.227 202.027 208.071 202.41 207.791 202.694C207.507 202.974 207.124 203.13 206.725 203.13C206.327 203.13 205.944 202.974 205.66 202.694L191.322 188.454C190.644 187.872 190.644 186.904 191.322 186.322ZM207.597 202.5C208.082 202.016 208.082 201.144 207.597 200.66L193.26 186.419C192.776 185.935 191.904 185.935 191.42 186.419C190.935 186.903 190.935 187.775 191.42 188.259L205.757 202.5C206.241 203.082 207.017 203.082 207.597 202.5Z" fill="white"/>
<path d="M192.194 200.853C192.776 200.369 193.647 200.369 194.132 200.95L200.042 207.731C200.525 208.313 200.429 209.185 199.847 209.669C199.267 210.153 198.394 210.153 197.91 209.572L192 202.791C191.516 202.307 191.613 201.435 192.194 200.853V200.853Z" fill="#F3F3F3"/>
<path d="M192.098 200.853C192.776 200.273 193.648 200.369 194.228 200.95L200.138 207.731C200.719 208.313 200.622 209.281 199.944 209.863C199.266 210.444 198.394 210.347 197.813 209.766L191.903 202.985C191.419 202.307 191.419 201.338 192.097 200.853H192.098ZM199.848 209.669C200.428 209.185 200.428 208.409 200.041 207.829L194.131 201.047C193.647 200.563 192.872 200.466 192.291 200.95C191.71 201.435 191.71 202.21 192.097 202.79L198.007 209.572C198.491 210.153 199.267 210.153 199.847 209.669H199.848Z" fill="white"/>
<path d="M178.244 197.172C178.922 196.688 179.794 196.882 180.182 197.56L191.418 214.319C191.806 214.997 191.612 215.869 191.031 216.257C190.353 216.741 189.481 216.547 189.093 215.869L177.856 199.109C177.468 198.432 177.662 197.559 178.243 197.172H178.244Z" fill="#F3F3F3"/>
<path d="M178.244 197.075C178.922 196.591 179.891 196.785 180.375 197.463L191.613 214.223C192.097 214.9 191.903 215.869 191.129 216.353C190.45 216.838 189.482 216.644 188.997 215.966L177.76 199.206C177.276 198.432 177.47 197.56 178.244 197.076V197.075ZM191.032 216.16C191.613 215.772 191.807 214.997 191.419 214.416L180.182 197.656C179.794 197.076 179.019 196.978 178.342 197.366C177.76 197.753 177.566 198.528 177.954 199.11L189.191 215.869C189.579 216.353 190.451 216.547 191.031 216.159L191.032 216.16Z" fill="white"/>
<path d="M176.21 211.509C176.888 211.122 177.76 211.316 178.147 211.994L182.604 219.841C182.991 220.519 182.7 221.391 182.022 221.778C181.344 222.166 180.472 221.972 180.085 221.294L175.629 213.447C175.338 212.769 175.532 211.897 176.209 211.51L176.21 211.509Z" fill="#F3F3F3"/>
<path d="M176.21 211.413C176.985 211.025 177.857 211.219 178.244 211.897L182.7 219.744C183.088 220.422 182.894 221.391 182.12 221.778C181.344 222.166 180.472 221.972 180.085 221.294L175.629 213.447C175.241 212.769 175.435 211.897 176.209 211.413H176.21ZM182.022 221.682C182.604 221.294 182.894 220.519 182.507 219.938L178.051 212.091C177.663 211.51 176.888 211.316 176.307 211.606C175.725 211.994 175.435 212.769 175.822 213.35L180.279 221.197C180.569 221.778 181.441 222.069 182.022 221.681V221.682Z" fill="white"/>
<path d="M163.325 205.116C164.1 204.826 164.875 205.116 165.166 205.794L173.013 224.491C173.303 225.169 172.916 226.041 172.238 226.331C171.56 226.622 170.688 226.331 170.398 225.653L162.551 206.957C162.26 206.278 162.647 205.407 163.325 205.116Z" fill="#F3F3F3"/>
<path d="M163.325 205.019C164.1 204.729 164.972 205.019 165.36 205.794L173.207 224.491C173.347 224.864 173.335 225.277 173.171 225.64C173.008 226.003 172.707 226.286 172.335 226.428C171.56 226.719 170.688 226.428 170.301 225.653L162.454 206.957C162.163 206.278 162.551 205.407 163.325 205.019V205.019ZM172.141 226.235C172.819 225.944 173.11 225.169 172.819 224.588L164.972 205.891C164.682 205.213 163.907 204.922 163.229 205.213C162.551 205.503 162.259 206.278 162.551 206.86L170.397 225.557C170.785 226.235 171.463 226.525 172.141 226.235Z" fill="white"/>
<path d="M158.578 218.872C159.354 218.582 160.128 218.969 160.419 219.744L163.229 228.269C163.519 228.947 163.035 229.819 162.357 230.013C161.582 230.303 160.807 229.916 160.517 229.141L157.707 220.616C157.417 219.938 157.804 219.163 158.579 218.872H158.578Z" fill="#F3F3F3"/>
<path d="M158.482 218.775C158.855 218.635 159.268 218.648 159.631 218.811C159.994 218.975 160.277 219.275 160.419 219.647L163.229 228.172C163.519 228.947 163.035 229.819 162.259 230.11C161.887 230.251 161.474 230.238 161.11 230.074C160.747 229.911 160.464 229.61 160.322 229.238L157.513 220.713C157.319 219.938 157.707 219.066 158.482 218.775ZM162.26 229.915C162.938 229.722 163.325 228.947 163.132 228.269L160.322 219.744C160.129 219.066 159.354 218.775 158.676 218.969C157.997 219.163 157.61 219.938 157.804 220.616L160.613 229.141C160.662 229.306 160.746 229.458 160.858 229.588C160.97 229.718 161.108 229.823 161.264 229.896C161.419 229.969 161.588 230.009 161.76 230.012C161.931 230.016 162.102 229.983 162.26 229.916V229.915Z" fill="white"/>
<path d="M147.148 210.057C147.922 209.863 148.698 210.347 148.794 211.122L152.863 230.982C153.057 231.756 152.475 232.435 151.7 232.628C150.926 232.822 150.15 232.338 150.054 231.563L145.984 211.703C145.888 211.025 146.372 210.25 147.147 210.056L147.148 210.057Z" fill="#F3F3F3"/>
<path d="M147.148 209.959C148.019 209.766 148.794 210.347 148.988 211.122L153.057 230.982C153.251 231.756 152.669 232.628 151.894 232.725C151.022 232.919 150.247 232.338 150.054 231.563L145.984 211.703C145.791 210.928 146.276 210.153 147.147 209.96L147.148 209.959ZM151.7 232.531C152.379 232.435 152.863 231.756 152.766 230.981L148.697 211.122C148.601 210.444 147.826 209.96 147.147 210.153C146.469 210.25 145.985 210.928 146.082 211.703L150.151 231.563C150.344 232.241 151.022 232.628 151.701 232.532L151.7 232.531Z" fill="white"/>
<path d="M139.785 222.65C140.56 222.553 141.238 223.038 141.432 223.813L142.594 232.725C142.691 233.5 142.11 234.178 141.334 234.275C140.56 234.372 139.882 233.888 139.688 233.113L138.526 224.2C138.429 223.425 139.01 222.747 139.785 222.65Z" fill="#F3F3F3"/>
<path d="M139.785 222.553C140.657 222.457 141.432 223.038 141.529 223.813L142.691 232.725C142.788 233.5 142.207 234.275 141.335 234.372C140.463 234.469 139.688 233.888 139.591 233.112L138.429 224.2C138.332 223.425 138.913 222.65 139.785 222.553ZM141.238 234.178C141.916 234.082 142.498 233.403 142.401 232.725L141.238 223.813C141.141 223.135 140.463 222.65 139.785 222.747C139.107 222.844 138.525 223.522 138.622 224.2L139.785 233.113C139.882 233.791 140.56 234.275 141.238 234.178Z" fill="white"/>
<path d="M129.807 211.8C130.582 211.8 131.26 212.382 131.26 213.157V233.403C131.26 234.178 130.582 234.76 129.807 234.76C129.032 234.76 128.354 234.178 128.354 233.403V213.157C128.451 212.382 129.032 211.8 129.807 211.8Z" fill="#F3F3F3"/>
<path d="M129.807 211.703C130.679 211.703 131.357 212.381 131.357 213.156V233.403C131.357 234.178 130.679 234.856 129.807 234.856C128.935 234.856 128.257 234.178 128.257 233.403V213.157C128.257 212.382 129.032 211.703 129.807 211.703ZM129.807 234.663C130.485 234.663 131.163 234.082 131.163 233.403V213.157C131.163 212.478 130.582 211.897 129.807 211.897C129.129 211.897 128.451 212.478 128.451 213.157V233.403C128.547 234.082 129.129 234.663 129.807 234.663Z" fill="white"/>
<path d="M120.119 222.65C120.894 222.747 121.475 223.328 121.475 224.103L120.797 233.113C120.701 233.888 120.022 234.469 119.247 234.373C118.472 234.275 117.891 233.694 117.891 232.919L118.569 223.909C118.666 223.135 119.344 222.553 120.119 222.65Z" fill="#F3F3F3"/>
<path d="M120.119 222.553C120.991 222.65 121.572 223.328 121.572 224.103L120.894 233.113C120.797 233.888 120.119 234.566 119.247 234.469C118.376 234.372 117.794 233.694 117.794 232.919L118.472 223.909C118.569 223.038 119.247 222.457 120.119 222.553ZM119.247 234.275C119.925 234.275 120.604 233.791 120.604 233.113L121.282 224.103C121.282 223.425 120.797 222.844 120.022 222.747C119.344 222.747 118.666 223.231 118.666 223.91L117.988 232.919C117.988 233.597 118.569 234.179 119.248 234.275H119.247Z" fill="white"/>
<path d="M112.854 210.057C113.629 210.25 114.113 210.928 114.016 211.703L110.044 231.563C109.85 232.338 109.172 232.823 108.397 232.628C107.622 232.435 107.138 231.757 107.235 230.981L111.207 211.122C111.304 210.444 112.079 209.96 112.854 210.057Z" fill="#F3F3F3"/>
<path d="M112.854 209.959C113.725 210.153 114.21 210.929 114.113 211.703L110.141 231.563C109.947 232.338 109.172 232.919 108.301 232.725C107.429 232.531 106.944 231.756 107.041 230.981L111.013 211.122C111.207 210.347 111.982 209.862 112.853 209.96L112.854 209.959ZM108.301 232.531C108.979 232.628 109.657 232.241 109.851 231.563L113.822 211.703C113.919 211.025 113.532 210.347 112.757 210.153C112.079 210.057 111.401 210.444 111.207 211.123L107.235 230.981C107.138 231.756 107.622 232.338 108.301 232.531V232.531Z" fill="white"/>
<path d="M101.228 218.775C102.004 218.969 102.488 219.744 102.294 220.519L99.8721 229.238C99.6791 230.013 98.9041 230.4 98.1291 230.207C97.9445 230.163 97.7704 230.082 97.6169 229.971C97.4634 229.859 97.3334 229.718 97.2344 229.556C97.1354 229.394 97.0693 229.214 97.0399 229.027C97.0105 228.839 97.0184 228.648 97.0631 228.463L99.485 219.744C99.679 218.969 100.454 218.582 101.229 218.775H101.228Z" fill="#F3F3F3"/>
<path d="M101.228 218.679C102.004 218.872 102.585 219.744 102.294 220.519L99.872 229.238C99.679 230.013 98.807 230.498 98.032 230.303C97.257 230.11 96.676 229.238 96.966 228.463L99.388 219.744C99.582 218.969 100.357 218.484 101.228 218.678V218.679ZM98.032 230.013C98.71 230.207 99.485 229.819 99.679 229.141L102.1 220.422C102.294 219.744 101.907 219.066 101.132 218.872C100.454 218.678 99.679 219.066 99.485 219.744L97.063 228.463C96.966 229.141 97.353 229.819 98.032 230.013Z" fill="white"/>
<path d="M96.482 205.116C97.257 205.406 97.547 206.278 97.257 206.956L89.507 225.653C89.217 226.332 88.344 226.719 87.667 226.332C86.988 225.944 86.6 225.169 86.891 224.491L94.641 205.794C94.931 205.116 95.804 204.728 96.481 205.116H96.482Z" fill="#F3F3F3"/>
<path d="M96.482 205.019C96.8543 205.161 97.1551 205.445 97.3186 205.808C97.482 206.171 97.4948 206.585 97.354 206.957L89.604 225.653C89.313 226.428 88.441 226.719 87.569 226.428C87.197 226.286 86.8964 226.003 86.733 225.64C86.5696 225.277 86.5566 224.864 86.6971 224.491L94.4471 205.794C94.8351 205.019 95.707 204.632 96.482 205.019V205.019ZM87.666 226.235C88.344 226.525 89.119 226.235 89.41 225.557L97.16 206.86C97.45 206.182 97.063 205.503 96.385 205.213C95.707 204.923 94.9321 205.213 94.6411 205.891L86.8911 224.588C86.6971 225.169 86.988 225.944 87.666 226.235Z" fill="white"/>
<path d="M83.404 211.316C84.082 211.703 84.372 212.478 84.082 213.156L80.013 221.197C79.625 221.875 78.85 222.166 78.075 221.778C77.397 221.391 77.107 220.616 77.397 219.938L81.467 211.898C81.854 211.219 82.629 210.928 83.404 211.316Z" fill="#F3F3F3"/>
<path d="M83.404 211.219C84.179 211.606 84.469 212.479 84.082 213.253L80.013 221.294C79.625 222.069 78.753 222.36 77.979 221.972C77.204 221.585 76.913 220.712 77.301 219.938L81.369 211.898C81.757 211.122 82.629 210.832 83.404 211.219ZM78.076 221.779C78.754 222.069 79.529 221.875 79.819 221.197L83.888 213.157C84.178 212.575 83.888 211.8 83.307 211.413C82.629 211.123 81.854 211.316 81.563 211.994L77.494 220.034C77.204 220.616 77.494 221.391 78.076 221.778V221.779Z" fill="white"/>
<path d="M81.466 196.979C82.144 197.463 82.338 198.335 81.854 198.916L70.616 215.676C70.229 216.353 69.356 216.45 68.679 216.063C68.001 215.578 67.807 214.707 68.291 214.125L79.529 197.365C79.916 196.688 80.788 196.494 81.466 196.978V196.979Z" fill="#F3F3F3"/>
<path d="M81.466 196.881C82.144 197.366 82.338 198.335 81.95 199.013L70.713 215.773C70.229 216.45 69.357 216.644 68.582 216.16C67.904 215.675 67.71 214.707 68.097 214.028L79.335 197.269C79.819 196.591 80.788 196.397 81.466 196.881V196.881ZM68.679 215.966C69.259 216.353 70.132 216.256 70.519 215.676L81.757 198.916C82.144 198.335 81.951 197.56 81.369 197.172C80.788 196.785 79.916 196.882 79.529 197.462L68.291 214.125C67.904 214.707 68.097 215.578 68.679 215.965V215.966Z" fill="white"/>
<path d="M67.322 200.563C67.904 201.047 68.097 201.919 67.613 202.5L61.994 209.572C61.51 210.153 60.638 210.25 60.057 209.766C59.476 209.282 59.282 208.41 59.767 207.828L65.385 200.756C65.869 200.176 66.741 200.078 67.322 200.563Z" fill="#F3F3F3"/>
<path d="M67.419 200.466C68.097 200.95 68.194 201.919 67.709 202.597L62.091 209.669C61.607 210.347 60.638 210.444 59.96 209.863C59.282 209.378 59.185 208.41 59.67 207.731L65.288 200.66C65.772 199.981 66.741 199.885 67.419 200.466ZM60.154 209.669C60.734 210.153 61.51 210.057 61.994 209.475L67.613 202.403C68.001 201.823 67.903 201.047 67.323 200.563C66.741 200.078 65.966 200.175 65.482 200.757L59.863 207.828C59.476 208.41 59.573 209.281 60.153 209.669H60.154Z" fill="white"/>
<path d="M68.291 186.032C68.872 186.612 68.872 187.485 68.291 187.969L53.954 202.209C53.372 202.791 52.501 202.694 52.016 202.209C51.532 201.725 51.435 200.756 52.016 200.272L66.256 186.032C66.838 185.45 67.71 185.45 68.291 186.032V186.032Z" fill="#F3F3F3"/>
<path d="M68.388 185.935C68.6671 186.219 68.8235 186.602 68.8235 187C68.8235 187.399 68.6671 187.781 68.388 188.065L54.05 202.307C53.7658 202.586 53.3833 202.743 52.985 202.743C52.5866 202.743 52.2042 202.586 51.92 202.307C51.6403 202.023 51.4835 201.64 51.4835 201.241C51.4835 200.842 51.6403 200.46 51.92 200.175L66.257 185.935C66.5413 185.656 66.9239 185.499 67.3225 185.499C67.7211 185.499 68.1037 185.656 68.388 185.935V185.935ZM52.016 202.209C52.5 202.693 53.372 202.693 53.856 202.209L68.194 187.968C68.679 187.484 68.679 186.612 68.194 186.128C67.71 185.643 66.838 185.643 66.354 186.128L52.016 200.368C51.532 200.852 51.532 201.628 52.016 202.208V202.209Z" fill="white"/>
<path d="M53.7601 186.807C54.2441 187.387 54.2441 188.26 53.6631 188.744L46.7851 194.557C46.2041 195.041 45.3321 194.944 44.8471 194.363C44.3631 193.781 44.3631 192.91 44.9441 192.425L51.8221 186.613C52.4041 186.128 53.2751 186.225 53.7601 186.807Z" fill="#F3F3F3"/>
<path d="M53.857 186.709C54.438 187.388 54.341 188.356 53.76 188.841L46.882 194.653C46.301 195.235 45.332 195.138 44.751 194.46C44.169 193.781 44.266 192.813 44.847 192.328L51.726 186.516C52.306 185.935 53.276 186.032 53.856 186.71L53.857 186.709ZM44.944 194.363C45.429 194.944 46.204 194.944 46.784 194.557L53.663 188.744C54.147 188.26 54.244 187.484 53.76 186.904C53.275 186.322 52.5 186.322 51.92 186.71L45.041 192.522C44.46 193.006 44.46 193.782 44.944 194.362V194.363Z" fill="white"/>
<path d="M57.635 172.856C58.119 173.535 57.925 174.406 57.247 174.794L40.391 186.032C39.713 186.419 38.841 186.225 38.454 185.644C37.969 184.966 38.163 184.094 38.841 183.706L55.698 172.469C56.28 172.082 57.151 172.275 57.636 172.856H57.635Z" fill="#F3F3F3"/>
<path d="M57.732 172.856C58.216 173.535 58.022 174.503 57.344 174.988L40.488 186.225C39.81 186.71 38.841 186.515 38.357 185.741C37.872 185.063 38.067 184.094 38.744 183.61L55.601 172.372C56.279 171.888 57.247 172.082 57.731 172.856H57.732ZM38.551 185.547C38.938 186.128 39.713 186.322 40.294 185.935L57.15 174.697C57.732 174.31 57.925 173.535 57.441 172.857C57.054 172.275 56.279 172.082 55.697 172.469L38.841 183.707C38.26 184.191 38.163 184.966 38.551 185.547V185.547Z" fill="white"/>
<path d="M43.2 170.822C43.588 171.5 43.394 172.372 42.716 172.76L34.869 177.216C34.191 177.603 33.319 177.313 32.932 176.635C32.544 175.957 32.738 175.085 33.416 174.697L41.263 170.241C41.941 169.853 42.813 170.144 43.201 170.822H43.2Z" fill="#F3F3F3"/>
<path d="M43.298 170.725C43.685 171.5 43.491 172.372 42.813 172.76L34.966 177.216C34.288 177.603 33.319 177.313 32.932 176.635C32.544 175.86 32.738 174.988 33.416 174.6L41.263 170.144C41.941 169.756 42.91 170.047 43.297 170.725H43.298ZM33.028 176.538C33.416 177.216 34.191 177.41 34.772 177.022L42.619 172.566C43.2 172.178 43.394 171.403 43.104 170.822C42.716 170.144 41.941 169.95 41.36 170.338L33.513 174.794C32.932 175.084 32.738 175.86 33.029 176.538H33.028Z" fill="white"/>
<path d="M49.691 157.938C49.981 158.713 49.691 159.488 48.916 159.778L30.219 167.528C29.541 167.819 28.669 167.432 28.379 166.753C28.088 165.978 28.379 165.203 29.154 164.913L47.851 157.163C48.529 156.873 49.401 157.163 49.691 157.938V157.938Z" fill="#F3F3F3"/>
<path d="M49.788 157.841C50.078 158.616 49.788 159.488 49.013 159.875L30.316 167.625C29.9435 167.765 29.5305 167.753 29.1674 167.589C28.8044 167.426 28.5209 167.125 28.379 166.753C28.088 165.978 28.379 165.106 29.154 164.719L47.851 156.969C48.2236 156.829 48.6366 156.842 48.9996 157.005C49.3627 157.168 49.6461 157.469 49.788 157.841V157.841ZM28.572 166.656C28.863 167.335 29.638 167.626 30.219 167.431L48.916 159.681C49.594 159.391 49.885 158.616 49.594 157.938C49.304 157.26 48.529 156.969 47.947 157.163L29.25 164.913C28.572 165.203 28.282 165.978 28.572 166.657V166.656Z" fill="white"/>
<path d="M36.032 153.094C36.322 153.869 35.935 154.644 35.16 154.934L26.635 157.744C25.957 158.034 25.085 157.55 24.891 156.872C24.601 156.097 24.988 155.322 25.763 155.032L34.288 152.222C34.966 151.932 35.741 152.319 36.032 153.094Z" fill="#F3F3F3"/>
<path d="M36.1279 152.997C36.4189 153.772 36.0319 154.644 35.1599 154.935L26.6349 157.744C25.8599 158.034 24.9879 157.55 24.6969 156.775C24.4069 156 24.7939 155.128 25.6669 154.838L34.1909 152.028C34.9659 151.835 35.8379 152.222 36.1289 152.998L36.1279 152.997ZM24.8919 156.679C25.0859 157.357 25.8609 157.745 26.5389 157.551L35.0639 154.741C35.7419 154.548 36.0329 153.773 35.8389 153.095C35.6449 152.417 34.8699 152.029 34.1919 152.223L25.6669 155.033C24.9889 155.323 24.6979 156.001 24.8919 156.679Z" fill="white"/>
<path d="M44.7509 141.566C44.9439 142.341 44.4599 143.116 43.6849 143.213L23.8249 147.088C23.05 147.282 22.372 146.7 22.179 145.925C21.985 145.15 22.469 144.375 23.244 144.278L43.104 140.403C43.879 140.307 44.654 140.791 44.75 141.566H44.7509Z" fill="#F3F3F3"/>
<path d="M44.944 141.566C45.138 142.438 44.557 143.213 43.782 143.406L23.922 147.281C23.147 147.475 22.372 146.894 22.179 146.022C21.985 145.15 22.566 144.375 23.341 144.182L43.201 140.307C43.975 140.113 44.751 140.694 44.944 141.566ZM22.372 145.926C22.469 146.603 23.147 147.088 23.825 146.991L43.685 143.116C44.363 143.019 44.847 142.244 44.654 141.566C44.557 140.888 43.879 140.403 43.2 140.5L23.341 144.375C22.663 144.569 22.179 145.247 22.372 145.925V145.926Z" fill="white"/>
<path d="M32.3509 134.107C32.4469 134.881 31.9629 135.56 31.1879 135.657L22.2759 136.722C21.4999 136.819 20.8219 136.238 20.7259 135.462C20.6289 134.688 21.1129 134.01 21.8879 133.912L30.8009 132.847C31.4789 132.75 32.2539 133.331 32.3509 134.107Z" fill="#F3F3F3"/>
<path d="M32.448 134.107C32.544 134.978 31.963 135.753 31.188 135.85L22.276 136.916C21.5 137.013 20.726 136.432 20.629 135.56C20.532 134.688 21.113 133.913 21.888 133.816L30.801 132.75C31.575 132.653 32.351 133.235 32.447 134.106L32.448 134.107ZM20.725 135.463C20.822 136.141 21.501 136.723 22.179 136.625L31.091 135.56C31.769 135.463 32.254 134.785 32.157 134.107C32.06 133.428 31.382 132.847 30.704 132.944L21.791 134.01C21.113 134.107 20.629 134.785 20.725 135.463V135.463Z" fill="white"/>
<path d="M43.1999 124.709C43.1999 125.485 42.6199 126.163 41.8439 126.163H21.5979C20.8229 126.163 20.2419 125.485 20.2419 124.71C20.2419 123.935 20.8229 123.256 21.5979 123.256H41.8449C42.6199 123.256 43.2019 123.935 43.2019 124.71L43.1999 124.709Z" fill="#F3F3F3"/>
<path d="M43.298 124.709C43.298 125.582 42.619 126.259 41.844 126.259H21.598C20.823 126.259 20.145 125.581 20.145 124.709C20.145 123.838 20.823 123.159 21.598 123.159H41.845C42.62 123.159 43.298 123.838 43.298 124.709ZM20.338 124.613C20.338 125.291 20.919 125.969 21.598 125.969H41.844C42.522 125.969 43.104 125.388 43.104 124.613C43.104 123.935 42.522 123.256 41.844 123.256H21.598C20.92 123.353 20.339 123.935 20.339 124.613H20.338Z" fill="white"/>
<path d="M32.448 114.925C32.35 115.7 31.769 116.281 30.994 116.281L21.984 115.603C21.21 115.506 20.629 114.828 20.725 114.053C20.822 113.278 21.404 112.697 22.179 112.697L31.188 113.375C31.866 113.472 32.448 114.15 32.448 114.925Z" fill="#E2E2E2"/>
<path d="M32.544 114.925C32.447 115.797 31.769 116.378 30.994 116.378L21.984 115.7C21.21 115.603 20.532 114.925 20.629 114.053C20.725 113.182 21.404 112.6 22.179 112.6L31.188 113.278C31.963 113.375 32.544 114.15 32.544 114.925ZM20.725 114.053C20.629 114.731 21.21 115.41 21.888 115.41L30.898 116.088C31.575 116.088 32.157 115.603 32.254 114.828C32.351 114.15 31.769 113.472 31.091 113.472L22.081 112.794C21.404 112.794 20.822 113.375 20.725 114.054V114.053Z" fill="white"/>
<path d="M44.944 107.853C44.75 108.628 44.072 109.113 43.297 109.016L23.438 104.947C22.663 104.753 22.178 104.075 22.372 103.3C22.566 102.525 23.244 102.04 24.019 102.138L43.879 106.11C44.557 106.303 45.041 107.078 44.944 107.853V107.853Z" fill="#F3F3F3"/>
<path d="M45.0411 107.853C44.8471 108.725 44.0721 109.21 43.2971 109.113L23.4381 105.141C22.6631 104.947 22.0821 104.172 22.2761 103.301C22.4691 102.428 23.2441 101.944 24.0191 102.041L43.8791 106.013C44.6541 106.207 45.1381 106.982 45.0411 107.853V107.853ZM22.4691 103.3C22.3721 103.978 22.7591 104.656 23.4381 104.85L43.2981 108.822C43.9761 108.919 44.6541 108.532 44.8481 107.756C44.9441 107.078 44.5571 106.4 43.8781 106.206L24.0201 102.235C23.2451 102.138 22.6641 102.622 22.4701 103.3H22.4691Z" fill="white"/>
<path d="M36.226 96.2291C36.1815 96.4136 36.1011 96.5875 35.9893 96.7409C35.8776 96.8944 35.7367 97.0242 35.5747 97.1231C35.4128 97.222 35.2329 97.2881 35.0454 97.3174C34.8579 97.3467 34.6664 97.3388 34.482 97.2941L25.763 94.8721C24.988 94.6781 24.601 93.9031 24.794 93.1281C24.8384 92.9436 24.9188 92.7697 25.0306 92.6163C25.1423 92.4629 25.2832 92.333 25.4452 92.2341C25.6072 92.1352 25.787 92.0692 25.9746 92.0398C26.1621 92.0105 26.3535 92.0184 26.538 92.0631L35.257 94.4851C36.032 94.6781 36.419 95.4531 36.226 96.2281V96.2291Z" fill="#F3F3F3"/>
<path d="M36.322 96.2292C36.129 97.0032 35.257 97.5852 34.482 97.2942L25.763 94.8722C24.988 94.6782 24.503 93.8062 24.697 93.0322C24.891 92.2562 25.763 91.6752 26.538 91.9662L35.257 94.3882C36.032 94.5822 36.517 95.3572 36.322 96.2282V96.2292ZM24.988 93.0302C24.794 93.7092 25.182 94.4842 25.86 94.6772L34.579 97.0992C35.257 97.2932 35.935 96.9052 36.129 96.1302C36.322 95.4522 35.935 94.6772 35.257 94.4842L26.538 92.0622C25.86 91.9652 25.182 92.3522 24.988 93.0312V93.0302Z" fill="white"/>
<path d="M49.885 91.5792C49.595 92.3532 48.722 92.6442 48.045 92.3532L29.347 84.6032C28.669 84.3132 28.282 83.4411 28.572 82.7631C28.863 81.9881 29.735 81.6971 30.413 81.9881L49.11 89.7381C49.885 90.0281 50.176 90.9002 49.885 91.5782V91.5792Z" fill="#F3F3F3"/>
<path d="M49.982 91.6752C49.8401 92.0475 49.5564 92.3483 49.1932 92.5117C48.8299 92.6752 48.4166 92.688 48.044 92.5472L29.347 84.7972C28.572 84.5072 28.282 83.6352 28.572 82.7632C28.7138 82.391 28.9975 82.0902 29.3607 81.9267C29.724 81.7633 30.1373 81.7505 30.51 81.8912L49.207 89.6412C49.982 90.0282 50.272 90.9012 49.982 91.6752V91.6752ZM28.766 82.8602C28.476 83.5382 28.766 84.3132 29.444 84.6032L48.141 92.3532C48.819 92.6442 49.497 92.2562 49.788 91.5782C50.078 90.9002 49.788 90.1252 49.11 89.8352L30.413 82.0852C29.735 81.8912 28.96 82.1822 28.766 82.8602V82.8602Z" fill="white"/>
<path d="M43.588 78.5002C43.201 79.1782 42.426 79.4692 41.748 79.1782L33.707 75.1102C33.029 74.8192 32.738 73.9472 33.126 73.1722C33.513 72.4942 34.288 72.2032 34.966 72.4942L43.006 76.5632C43.685 76.9502 43.976 77.8232 43.588 78.5002Z" fill="#F3F3F3"/>
<path d="M43.685 78.5971C43.297 79.3721 42.425 79.6631 41.65 79.2751L33.61 75.2061C32.835 74.8191 32.544 73.9471 32.932 73.1721C33.319 72.3971 34.192 72.1061 34.966 72.4941L43.006 76.5631C43.782 76.8531 44.072 77.8231 43.685 78.5971V78.5971ZM33.222 73.2691C32.932 73.9471 33.126 74.7221 33.804 75.0131L41.844 79.0821C42.426 79.3721 43.201 79.0821 43.588 78.5001C43.878 77.8221 43.685 77.0471 43.007 76.7561L34.868 72.6891C34.287 72.3991 33.512 72.5921 33.221 73.2701L33.222 73.2691Z" fill="white"/>
<path d="M57.828 76.6592C57.344 77.3382 56.569 77.5322 55.891 77.0472L39.131 65.9072C38.454 65.5192 38.357 64.6472 38.744 63.9692C39.132 63.2912 40.004 63.0972 40.682 63.5812L57.538 74.8192C58.119 75.2072 58.313 76.0792 57.828 76.6592Z" fill="#F3F3F3"/>
<path d="M57.925 76.7562C57.441 77.4352 56.472 77.6282 55.795 77.2412L39.035 66.0032C38.357 65.5192 38.163 64.6472 38.647 63.8732C39.132 63.1942 40.101 63.0002 40.779 63.3882L57.538 74.6252C58.313 75.1102 58.41 76.0782 57.925 76.7562ZM38.841 63.9692C38.454 64.5502 38.551 65.4222 39.131 65.8092L55.988 77.0482C56.569 77.4362 57.344 77.2422 57.732 76.6612C58.119 76.0792 58.022 75.2072 57.442 74.8202L40.584 63.5822C40.003 63.1942 39.228 63.3882 38.84 63.9692H38.841Z" fill="white"/>
<path d="M54.244 62.6131C53.76 63.1941 52.888 63.3881 52.307 62.9031L45.235 57.3821C44.654 56.8971 44.557 56.0251 45.041 55.4441C45.525 54.8631 46.397 54.6691 46.979 55.1541L54.05 60.6751C54.632 61.1601 54.729 62.0311 54.244 62.6131V62.6131Z" fill="#F3F3F3"/>
<path d="M54.341 62.709C53.857 63.388 52.888 63.485 52.21 63L45.138 57.479C44.46 56.995 44.363 56.026 44.848 55.349C45.332 54.67 46.301 54.573 46.978 55.058L54.05 60.579C54.729 61.064 54.826 62.032 54.341 62.711V62.709ZM45.041 55.444C44.557 56.025 44.654 56.8 45.235 57.284L52.307 62.807C52.888 63.194 53.663 63.097 54.147 62.516C54.632 61.935 54.535 61.16 53.954 60.676L46.882 55.153C46.301 54.766 45.525 54.863 45.042 55.444H45.041Z" fill="white"/>
<path d="M68.678 63.581C68.098 64.163 67.225 64.163 66.741 63.581L52.308 49.341C51.727 48.76 51.823 47.888 52.308 47.403C52.889 46.823 53.761 46.823 54.245 47.403L68.583 61.644C69.164 62.128 69.164 63.097 68.68 63.582L68.678 63.581Z" fill="#F3F3F3"/>
<path d="M68.6781 63.6791C68.3938 63.9582 68.0114 64.1146 67.613 64.1146C67.2147 64.1146 66.8323 63.9582 66.548 63.6791L52.209 49.4371C51.9293 49.1528 51.7726 48.77 51.7726 48.3711C51.7726 47.9723 51.9293 47.5894 52.209 47.3051C52.4933 47.0257 52.876 46.8691 53.2745 46.8691C53.6731 46.8691 54.0558 47.0257 54.34 47.3051L68.6781 61.5461C69.3561 62.1271 69.3561 63.0961 68.6781 63.6771V63.6791ZM52.405 47.4991C51.92 47.9841 51.92 48.8561 52.405 49.3391L66.7421 63.5801C67.2271 64.0651 68.0981 64.0651 68.5821 63.5801C69.0671 63.0961 69.0671 62.2241 68.5821 61.7401L54.245 47.4031C53.761 46.9191 52.985 46.9191 52.405 47.5001V47.4991Z" fill="white"/>
<path d="M67.807 49.1471C67.226 49.6321 66.354 49.6321 65.869 49.0501L59.959 42.2691C59.476 41.6881 59.572 40.8161 60.154 40.3321C60.734 39.8471 61.607 39.8471 62.091 40.4281L68.001 47.2101C68.485 47.6941 68.388 48.5661 67.807 49.1471Z" fill="#F3F3F3"/>
<path d="M67.904 49.1471C67.226 49.7281 66.354 49.6321 65.772 49.0501L59.863 42.2691C59.282 41.6881 59.379 40.7191 60.057 40.1381C60.735 39.5561 61.607 39.6531 62.188 40.2351L68.098 47.0151C68.582 47.6941 68.582 48.6631 67.904 49.1471V49.1471ZM60.154 40.3321C59.572 40.8161 59.572 41.5911 59.96 42.1721L65.87 48.9531C66.354 49.4381 67.129 49.5351 67.71 49.0501C68.291 48.5661 68.291 47.7901 67.904 47.2101L61.994 40.4281C61.51 39.8481 60.734 39.8481 60.154 40.3321V40.3321Z" fill="white"/>
<path d="M81.757 52.8291C81.079 53.3131 80.207 53.1191 79.819 52.4411L68.485 35.6811C68.097 35.0031 68.291 34.1311 68.872 33.7441C69.55 33.2601 70.422 33.4541 70.81 34.1321L82.047 50.8911C82.532 51.5691 82.338 52.4411 81.757 52.8281V52.8291Z" fill="#F3F3F3"/>
<path d="M81.757 52.9251C81.079 53.4101 80.11 53.2151 79.625 52.5381L68.388 35.7781C67.904 35.1001 68.098 34.1321 68.872 33.6481C69.55 33.1631 70.519 33.3571 71.004 34.0351L82.241 50.7941C82.725 51.5691 82.531 52.4411 81.757 52.9251ZM68.968 33.8411C68.387 34.2281 68.193 35.0031 68.581 35.5851L79.818 52.3441C80.206 52.9251 80.981 53.0221 81.658 52.6341C82.24 52.2471 82.434 51.4721 82.046 50.8911L70.81 34.2281C70.422 33.6481 69.55 33.4531 68.97 33.8411H68.968Z" fill="white"/>
<path d="M83.791 38.4912C83.113 38.8782 82.241 38.6852 81.854 38.0072L77.397 30.1602C77.01 29.4822 77.3 28.6102 77.979 28.2222C78.657 27.8352 79.529 28.0282 79.916 28.7072L84.372 36.5532C84.663 37.2312 84.469 38.1032 83.792 38.4912H83.791Z" fill="#F3F3F3"/>
<path d="M83.791 38.5882C83.016 38.9752 82.144 38.7822 81.757 38.1032L77.3 30.2572C76.913 29.5782 77.107 28.6102 77.882 28.2222C78.657 27.8352 79.529 28.0282 79.916 28.7072L84.372 36.5532C84.76 37.2312 84.566 38.1032 83.792 38.5882H83.791ZM77.979 28.3192C77.397 28.7062 77.107 29.4812 77.494 30.0632L81.951 37.9102C82.338 38.4902 83.113 38.6852 83.694 38.3942C84.276 38.0072 84.566 37.2312 84.179 36.6502L79.722 28.8032C79.432 28.2232 78.56 27.9312 77.979 28.3192V28.3192Z" fill="white"/>
<path d="M96.675 44.8851C95.901 45.1751 95.125 44.8851 94.835 44.2071L86.988 25.5091C86.698 24.8311 87.085 23.9591 87.763 23.6681C88.538 23.3781 89.313 23.6681 89.603 24.3461L97.45 43.0431C97.741 43.7211 97.354 44.5931 96.675 44.8831V44.8851Z" fill="#F3F3F3"/>
<path d="M96.6751 44.9822C95.9011 45.2722 95.0291 44.9822 94.6411 44.2062L86.7941 25.5102C86.6533 25.1375 86.6661 24.7243 86.8296 24.361C86.993 23.9977 87.2938 23.7141 87.6661 23.5722C88.4411 23.2822 89.3131 23.5722 89.7011 24.3472L97.5471 43.0442C97.8381 43.7222 97.4511 44.5942 96.6761 44.9822H96.6751ZM87.8601 23.7662C87.1821 24.0562 86.8911 24.8322 87.1821 25.4132L95.0281 44.1092C95.3181 44.7872 96.0931 45.0772 96.7711 44.7872C97.4491 44.4972 97.7411 43.7212 97.4491 43.1402L89.6031 24.4432C89.2151 23.7652 88.5371 23.4742 87.8591 23.7652L87.8601 23.7662Z" fill="white"/>
<path d="M101.422 31.1291C100.647 31.4191 99.8721 31.0311 99.5821 30.2571L96.7721 21.7311C96.4821 21.0531 96.9661 20.1811 97.6441 19.9881C98.3221 19.7941 99.1941 20.0851 99.4841 20.8601L102.294 29.3851C102.584 30.0631 102.197 30.8381 101.422 31.1281V31.1291Z" fill="#F3F3F3"/>
<path d="M101.519 31.2251C101.146 31.3656 100.733 31.3526 100.37 31.1892C100.007 31.0258 99.7239 30.7251 99.582 30.3531L96.772 21.8281C96.482 21.0531 96.966 20.1821 97.742 19.8911C98.1145 19.7507 98.5275 19.7637 98.8906 19.9271C99.2536 20.0905 99.5371 20.3911 99.679 20.7631L102.488 29.2881C102.682 30.0631 102.294 30.9351 101.519 31.2251V31.2251ZM97.741 20.0851C97.063 20.2781 96.675 21.0531 96.869 21.7311L99.679 30.2571C99.872 30.9351 100.647 31.2251 101.326 31.0311C102.004 30.8381 102.391 30.0631 102.197 29.3851L99.388 20.8591C99.3386 20.6947 99.2552 20.5425 99.1431 20.4124C99.031 20.2824 98.8927 20.1774 98.7374 20.1042C98.582 20.0311 98.413 19.9916 98.2413 19.9881C98.0696 19.9846 97.8992 20.0174 97.741 20.0841V20.0851Z" fill="white"/>
<path d="M112.854 39.9442C112.079 40.1382 111.304 39.6542 111.207 38.8782L107.138 19.0192C106.944 18.2442 107.526 17.5662 108.3 17.3722C109.076 17.1782 109.85 17.6622 109.947 18.4382L114.017 38.2982C114.113 38.9752 113.629 39.7502 112.854 39.9442V39.9442Z" fill="#F3F3F3"/>
<path d="M112.854 40.0412C111.982 40.2352 111.207 39.6532 111.013 38.8782L106.944 19.0192C106.75 18.2442 107.332 17.3722 108.107 17.2752C108.979 17.0812 109.754 17.6632 109.947 18.4382L114.017 38.2982C114.21 39.0722 113.726 39.8482 112.854 40.0412V40.0412ZM108.301 17.4692C107.622 17.5662 107.138 18.2442 107.235 19.0192L111.304 38.8792C111.401 39.5562 112.175 40.0412 112.854 39.8472C113.532 39.7502 114.016 39.0721 113.919 38.2971L109.85 18.4372C109.657 17.7602 108.979 17.3722 108.3 17.4692H108.301Z" fill="white"/>
<path d="M120.216 27.3502C119.441 27.4472 118.763 26.9632 118.569 26.1882L117.407 17.2752C117.31 16.5002 117.891 15.8222 118.667 15.7252C119.441 15.6282 120.119 16.1132 120.313 16.8882L121.475 25.8002C121.572 26.5752 120.991 27.2532 120.216 27.3502V27.3502Z" fill="#F3F3F3"/>
<path d="M120.216 27.4471C119.344 27.5441 118.569 26.9631 118.472 26.1871L117.31 17.2751C117.213 16.5001 117.794 15.7251 118.666 15.6281C119.538 15.5321 120.313 16.1131 120.41 16.8881L121.572 25.8001C121.669 26.5751 121.088 27.3501 120.216 27.4471V27.4471ZM118.763 15.8221C118.085 15.9191 117.503 16.5971 117.6 17.2751L118.763 26.1881C118.86 26.8661 119.538 27.3501 120.216 27.2531C120.894 27.1571 121.476 26.4781 121.379 25.8001L120.216 16.8881C120.119 16.2101 119.441 15.7251 118.763 15.8221V15.8221Z" fill="white"/>
<path d="M130.679 239.603C194.026 239.603 245.379 188.25 245.379 124.903C245.379 61.5561 194.026 10.2031 130.679 10.2031C67.3319 10.2031 15.979 61.5561 15.979 124.903C15.979 188.25 67.3319 239.603 130.679 239.603Z" fill="url(#paint2_linear)" fill-opacity="0.2"/>
<g filter="url(#filter1_d)">
<path d="M210.116 52.1499L117.6 111.438H117.503V111.534L117.406 111.631L59.67 206.86L144.532 138.563L144.629 138.467V138.37L210.117 52.1509L210.116 52.1499Z" fill="black" fill-opacity="0.05"/>
</g>
<path d="M208.372 46.6279L116.922 111.631L144.047 138.562L208.372 46.6279" fill="#CD151E"/>
<path d="M117.019 111.438L130.679 124.903L208.372 46.6279L117.019 111.438V111.438Z" fill="#FA5153"/>
<path d="M117.019 111.438L144.144 138.368L52.694 203.372L117.019 111.437V111.438Z" fill="#ACACAC"/>
<path d="M52.694 203.372L130.678 124.903L117.018 111.437L52.694 203.372Z" fill="#EEEEEE"/>
</g>
<defs>
<filter id="filter0_d" x="2" y="-1" width="256" height="256" filterUnits="userSpaceOnUse" color-interpolation-filters="sRGB">
<feFlood flood-opacity="0" result="BackgroundImageFix"/>
<feColorMatrix in="SourceAlpha" type="matrix" values="0 0 0 0 0 0 0 0 0 0 0 0 0 0 0 0 0 0 127 0" result="hardAlpha"/>
<feOffset dy="2"/>
<feGaussianBlur stdDeviation="2"/>
<feColorMatrix type="matrix" values="0 0 0 0 0 0 0 0 0 0 0 0 0 0 0 0 0 0 0.266007 0"/>
<feBlend mode="normal" in2="BackgroundImageFix" result="effect1_dropShadow"/>
<feBlend mode="normal" in="SourceGraphic" in2="effect1_dropShadow" result="shape"/>
</filter>
<filter id="filter1_d" x="55.67" y="49.1499" width="158.447" height="162.71" filterUnits="userSpaceOnUse" color-interpolation-filters="sRGB">
<feFlood flood-opacity="0" result="BackgroundImageFix"/>
<feColorMatrix in="SourceAlpha" type="matrix" values="0 0 0 0 0 0 0 0 0 0 0 0 0 0 0 0 0 0 127 0" result="hardAlpha"/>
<feOffset dy="1"/>
<feGaussianBlur stdDeviation="2"/>
<feColorMatrix type="matrix" values="0 0 0 0 0 0 0 0 0 0 0 0 0 0 0 0 0 0 1 0"/>
<feBlend mode="normal" in2="BackgroundImageFix" result="effect1_dropShadow"/>
<feBlend mode="normal" in="SourceGraphic" in2="effect1_dropShadow" result="shape"/>
</filter>
<linearGradient id="paint0_linear" x1="130" y1="249" x2="130" y2="1" gradientUnits="userSpaceOnUse">
<stop offset="0.25" stop-color="#DBDBDA"/>
<stop offset="1" stop-color="white"/>
</linearGradient>
<radialGradient id="paint1_radial" cx="0" cy="0" r="1" gradientUnits="userSpaceOnUse" gradientTransform="translate(146.115 99.805) scale(140.007)">
<stop stop-color="#2ABCE1"/>
<stop offset="0.11363" stop-color="#2ABBE1"/>
<stop offset="1" stop-color="#3375F8"/>
</radialGradient>
<linearGradient id="paint2_linear" x1="128.5" y1="92.1058" x2="74.9646" y2="188.153" gradientUnits="userSpaceOnUse">
<stop stop-opacity="0"/>
<stop offset="1"/>
</linearGradient>
<clipPath id="clip0">
<rect width="260" height="260" rx="38" fill="white"/>
</clipPath>
</defs>
</svg>
