<svg width="148" height="194" viewBox="0 0 148 194" fill="none" xmlns="http://www.w3.org/2000/svg">
<path d="M70 118C70 120.209 71.7909 122 74 122C76.2091 122 78 120.209 78 118H70ZM76.8284 1.17157C75.2663 -0.390524 72.7337 -0.390524 71.1716 1.17157L45.7157 26.6274C44.1536 28.1895 44.1536 30.7222 45.7157 32.2843C47.2778 33.8464 49.8105 33.8464 51.3726 32.2843L74 9.65685L96.6274 32.2843C98.1895 33.8464 100.722 33.8464 102.284 32.2843C103.846 30.7222 103.846 28.1895 102.284 26.6274L76.8284 1.17157ZM78 118L78 4H70L70 118H78Z" fill="#3C75CC"/>
<path fill-rule="evenodd" clip-rule="evenodd" d="M52 41H12C5.37258 41 0 46.3726 0 53V182C0 188.627 5.37258 194 12 194H136C142.627 194 148 188.627 148 182V53C148 46.3836 142.655 41 136.017 41H135.933H135.849H135.765H135.68H135.595H135.509H135.423H135.337H135.25H135.163H135.076H134.988H134.9H134.812H134.723H134.634H134.545H134.455H134.365H134.274H134.184H134.092H134.001H133.909H133.817H133.724H133.632H133.538H133.445H133.351H133.257H133.162H133.067H132.972H132.876H132.781H132.684H132.588H132.491H132.394H132.296H132.198H132.1H132.002H131.903H131.804H131.705H131.605H131.505H131.404H131.304H131.203H131.101H131H130.898H130.796H130.693H130.59H130.487H130.384H130.28H130.176H130.072H129.967H129.862H129.757H129.651H129.546H129.439H129.333H129.226H129.119H129.012H128.905H128.797H128.689H128.58H128.471H128.362H128.253H128.144H128.034H127.924H127.813H127.703H127.592H127.481H127.369H127.258H127.146H127.033H126.921H126.808H126.695H126.582H126.468H126.354H126.24H126.126H126.011H125.896H125.781H125.666H125.55H125.434H125.318H125.202H125.085H124.968H124.851H124.734H124.616H124.498H124.38H124.262H124.143H124.025H123.906H123.786H123.667H123.547H123.427H123.307H123.186H123.066H122.945H122.824H122.702H122.581H122.459H122.337H122.214H122.092H121.969H121.846H121.723H121.6H121.476H121.353H121.229H121.104H120.98H120.855H120.73H120.605H120.48H120.355H120.229H120.103H119.977H119.851H119.724H119.598H119.471H119.344H119.217H119.089H118.962H118.834H118.706H118.577H118.449H118.321H118.192H118.063H117.934H117.804H117.675H117.545H117.415H117.285H117.155H117.025H116.894H116.763H116.632H116.501H116.37H116.239H116.107H115.975H115.843H115.711H115.579H115.447H115.314H115.181H115.048H114.915H114.782H114.649H114.515H114.382H114.248H114.114H113.98H113.845H113.711H113.576H113.442H113.307H113.172H113.037H112.901H112.766H112.63H112.495H112.359H112.223H112.087H111.95H111.814H111.678H111.541H111.404H111.267H111.13H110.993H110.856H110.718H110.581H110.443H110.305H110.168H110.03H109.891H109.753H109.615H109.476H109.338H109.199H109.06H108.921H108.782H108.643H108.504H108.365H108.225H108.086H107.946H107.806H107.667H107.527H107.387H107.247H107.106H106.966H106.826H106.685H106.545H106.404H106.263H106.122H105.981H105.84H105.699H105.558H105.417H105.275H105.134H104.992H104.851H104.709H104.568H104.426H104.284H104.142H104H103.858H103.716H103.573H103.431H103.289H103.146H103.004H102.861H102.719H102.576H102.433H102.291H102.148H102.005H101.862H101.719H101.576H101.433H101.29H101.147H101.003H100.86H100.717H100.574H100.43H100.287H100.143H99.9997H99.8562H99.7126H99.569H99.4253H99.2816H99.1379H98.9942H98.8504H98.7066H98.5627H98.4189H98.275H98.1311H97.9871H97.8432H97.6992H97.5552H97.4112H97.2671H97.1231H96.979H96.8349H96.6908H96.5467H96.4026H96.2585H96.1144H96V49H96.1144H96.2585H96.4026H96.5467H96.6908H96.8349H96.979H97.1231H97.2671H97.4112H97.5552H97.6992H97.8432H97.9871H98.1311H98.275H98.4189H98.5627H98.7066H98.8504H98.9942H99.1379H99.2816H99.4253H99.569H99.7126H99.8562H99.9997H100.143H100.287H100.43H100.574H100.717H100.86H101.003H101.147H101.29H101.433H101.576H101.719H101.862H102.005H102.148H102.291H102.433H102.576H102.719H102.861H103.004H103.146H103.289H103.431H103.573H103.716H103.858H104H104.142H104.284H104.426H104.568H104.709H104.851H104.992H105.134H105.275H105.417H105.558H105.699H105.84H105.981H106.122H106.263H106.404H106.545H106.685H106.826H106.966H107.106H107.247H107.387H107.527H107.667H107.806H107.946H108.086H108.225H108.365H108.504H108.643H108.782H108.921H109.06H109.199H109.338H109.476H109.615H109.753H109.891H110.03H110.168H110.305H110.443H110.581H110.718H110.856H110.993H111.13H111.267H111.404H111.541H111.678H111.814H111.95H112.087H112.223H112.359H112.495H112.63H112.766H112.901H113.037H113.172H113.307H113.442H113.576H113.711H113.845H113.98H114.114H114.248H114.382H114.515H114.649H114.782H114.915H115.048H115.181H115.314H115.447H115.579H115.711H115.843H115.975H116.107H116.239H116.37H116.501H116.632H116.763H116.894H117.025H117.155H117.285H117.415H117.545H117.675H117.804H117.934H118.063H118.192H118.321H118.449H118.577H118.706H118.834H118.962H119.089H119.217H119.344H119.471H119.598H119.724H119.851H119.977H120.103H120.229H120.355H120.48H120.605H120.73H120.855H120.98H121.104H121.229H121.353H121.476H121.6H121.723H121.846H121.969H122.092H122.214H122.337H122.459H122.581H122.702H122.824H122.945H123.066H123.186H123.307H123.427H123.547H123.667H123.786H123.906H124.025H124.143H124.262H124.38H124.498H124.616H124.734H124.851H124.968H125.085H125.202H125.318H125.434H125.55H125.666H125.781H125.896H126.011H126.126H126.24H126.354H126.468H126.582H126.695H126.808H126.921H127.033H127.146H127.258H127.369H127.481H127.592H127.703H127.813H127.924H128.034H128.144H128.253H128.362H128.471H128.58H128.689H128.797H128.905H129.012H129.119H129.226H129.333H129.439H129.546H129.651H129.757H129.862H129.967H130.072H130.176H130.28H130.384H130.487H130.59H130.693H130.796H130.898H131H131.101H131.203H131.304H131.404H131.505H131.605H131.705H131.804H131.903H132.002H132.1H132.198H132.296H132.394H132.491H132.588H132.684H132.781H132.876H132.972H133.067H133.162H133.257H133.351H133.445H133.538H133.632H133.724H133.817H133.909H134.001H134.092H134.184H134.274H134.365H134.455H134.545H134.634H134.723H134.812H134.9H134.988H135.076H135.163H135.25H135.337H135.423H135.509H135.595H135.68H135.765H135.849H135.933H136.017C138.215 49 140 50.7799 140 53V182C140 184.209 138.209 186 136 186H12C9.79086 186 8 184.209 8 182V53C8 50.7909 9.79086 49 12 49H52V41ZM70 49H70.1257H70.2515H70.3776H70.5038H70.6303H70.757H70.8838H71.0109H71.1381H71.2656H71.3932H71.521H71.649H71.7772H71.9056H72.0342H72.163H72.2919H72.4211H72.5504H72.6799H72.8096H72.9394H73.0695H73.1997H73.3301H73.4606H73.5914H73.7223H73.8534H73.9846H74.1161H74.2476H74.3794H74.5113H74.6434H74.7757H74.9081H75.0407H75.1734H75.3063H75.4393H75.5726H75.7059H75.8394H75.9731H76.1069H76.2409H76.3751H76.5093H76.6438H76.7783H76.9131H77.0479H77.1829H77.3181H77.4534H77.5888H77.7244H77.8601H77.9959H78V41H77.9959H77.8601H77.7244H77.5888H77.4534H77.3181H77.1829H77.0479H76.9131H76.7783H76.6438H76.5093H76.3751H76.2409H76.1069H75.9731H75.8394H75.7059H75.5726H75.4393H75.3063H75.1734H75.0407H74.9081H74.7757H74.6434H74.5113H74.3794H74.2476H74.1161H73.9846H73.8534H73.7223H73.5914H73.4606H73.3301H73.1997H73.0695H72.9394H72.8096H72.6799H72.5504H72.4211H72.2919H72.163H72.0342H71.9056H71.7772H71.649H71.521H71.3932H71.2656H71.1381H71.0109H70.8838H70.757H70.6303H70.5038H70.3776H70.2515H70.1257H70V49Z" fill="#3C75CC"/>
</svg>
