<svg width="179" height="124" viewBox="0 0 179 124" fill="none" xmlns="http://www.w3.org/2000/svg">
<path d="M58.1253 90.7394C58.1255 82.1241 61.432 73.8619 67.3174 67.77C73.2028 61.6781 81.1851 58.2556 89.5083 58.2554C97.8314 58.2556 105.813 61.6782 111.699 67.7701C117.584 73.862 120.89 82.1242 120.89 90.7394C120.89 99.3545 117.584 107.617 111.699 113.709C105.813 119.801 97.8314 123.223 89.5083 123.223C81.1851 123.223 73.2028 119.801 67.3174 113.709C61.432 107.617 58.1255 99.3546 58.1253 90.7394V90.7394ZM93.33 115.312L95.104 118.802C98.373 118.107 101.492 116.801 104.31 114.949L103.034 111.249L108.927 105.149L112.706 106.363C114.526 103.476 115.825 100.271 116.539 96.9034L113.013 95.1754V86.5444L116.546 84.6204C115.839 81.2518 114.546 78.0443 112.73 75.1544L109.091 76.4994L103.198 70.3994L104.349 66.5564C101.536 64.7018 98.4202 63.3916 95.1542 62.6894L93.5619 66.1684H85.2245L83.498 62.7684C80.2323 63.5173 77.1262 64.8766 74.3318 66.7794L75.521 70.2254L69.6277 76.3254L66.232 75.2354C64.4157 78.1502 63.1294 81.3839 62.4362 84.7774L65.5411 86.3004V94.9304L62.4225 96.6304C63.1079 100.026 64.3874 103.264 66.198 106.183L69.4635 104.976L75.3566 111.076L74.2825 114.659C77.0745 116.568 80.1789 117.934 83.444 118.691L84.9898 115.307L93.33 115.312ZM71.1096 90.7394C71.1096 88.2386 71.5856 85.7624 72.5102 83.4521C73.4348 81.1417 74.7898 79.0425 76.4982 77.2743C78.2066 75.5061 80.2347 74.1035 82.4668 73.1466C84.6989 72.1897 87.0914 71.6972 89.5074 71.6974C94.3864 71.6974 99.0655 73.7036 102.516 77.2746C105.966 80.8457 107.904 85.6891 107.904 90.7394C107.904 93.2401 107.428 95.7163 106.504 98.0267C105.579 100.337 104.224 102.436 102.516 104.205C100.808 105.973 98.7795 107.376 96.5475 108.333C94.3154 109.29 91.9233 109.782 89.5074 109.782C87.0915 109.782 84.6992 109.29 82.4673 108.332C80.2353 107.375 78.2073 105.973 76.4992 104.204C74.791 102.436 73.436 100.337 72.5116 98.0265C71.5872 95.7162 71.1116 93.24 71.1118 90.7394H71.1096ZM83.2508 99.4914H87.5346V102.759H91.8181V99.4854C93.153 99.4256 94.4141 98.8346 95.3382 97.8358C96.2623 96.8369 96.7781 95.5074 96.7781 94.1244C96.7779 92.8142 96.3146 91.5494 95.4757 90.5684C94.6368 89.5873 93.4801 88.9578 92.2238 88.7984V88.7984H87.8561V88.7914C87.8116 88.7914 87.7663 88.7984 87.7209 88.7984C87.2526 88.7981 86.8036 88.6054 86.4725 88.2627C86.1413 87.9199 85.9552 87.4551 85.955 86.9704C85.955 86.4855 86.1408 86.0204 86.472 85.6774C86.8032 85.3344 87.2524 85.1416 87.7209 85.1414C87.7673 85.1414 87.8116 85.1414 87.8561 85.1484V85.1414H95.8748V81.4074H91.8172V78.7234H87.5334V81.4074H87.3084C85.9531 81.4377 84.6632 82.0162 83.715 83.019C82.7668 84.0218 82.2356 85.3692 82.2354 86.7724C82.2365 88.0444 82.6743 89.2745 83.4706 90.2433C84.267 91.2121 85.37 91.8565 86.5829 92.0614H91.3438V92.0684C91.3902 92.0684 91.4405 92.0614 91.483 92.0614C91.9612 92.0616 92.4198 92.2584 92.7578 92.6085C93.0959 92.9586 93.2857 93.4334 93.2857 93.9284C93.2857 94.4234 93.0959 94.8981 92.7578 95.2482C92.4198 95.5983 91.9612 95.7951 91.483 95.7954C91.4356 95.7954 91.3863 95.7954 91.3438 95.7884V95.7954H83.2536L83.2508 99.4914ZM136.135 97.9204L127.475 90.7204C127.476 88.3974 127.279 86.0788 126.888 83.7914L137.589 92.6914C138.293 93.2768 139.193 93.5487 140.091 93.4474C140.989 93.3462 141.811 92.88 142.377 92.1514L172.672 53.1044C173.238 52.3753 173.501 51.4434 173.403 50.5138C173.305 49.5842 172.854 48.733 172.15 48.1474L150.632 30.2604C150.283 29.9703 149.883 29.7542 149.453 29.6244C149.024 29.4946 148.574 29.4537 148.129 29.5039C147.685 29.5542 147.254 29.6946 146.862 29.9172C146.47 30.1399 146.124 30.4403 145.844 30.8014L125.733 56.7214L122.013 69.9504C121.987 70.0424 121.959 70.1334 121.93 70.2224C120.914 68.4985 119.772 66.8577 118.515 65.3144L121.564 54.4734L131.743 18.2734C131.868 17.8289 131.907 17.3633 131.859 16.9032C131.81 16.443 131.674 15.9974 131.459 15.5917C131.243 15.1859 130.953 14.8281 130.604 14.5386C130.255 14.2491 129.854 14.0336 129.425 13.9044L102.925 5.91937C102.496 5.78996 102.046 5.74938 101.602 5.79997C101.157 5.85055 100.726 5.9913 100.334 6.21417C99.9422 6.43703 99.5963 6.73766 99.3165 7.09887C99.0367 7.46009 98.8284 7.87481 98.7035 8.31936L91.966 32.2774L98.3306 52.3694C96.6394 51.946 94.9223 51.6433 93.1911 51.4634L89.6831 40.3914L87.1393 32.3604L79.4211 7.99636C79.2818 7.55641 79.0602 7.14916 78.7689 6.79788C78.4776 6.44659 78.1221 6.15815 77.7231 5.94903C77.324 5.73991 76.8892 5.6142 76.4433 5.57908C75.9973 5.54396 75.5488 5.60012 75.1238 5.74436L48.898 14.6444C48.4731 14.7885 48.0799 15.0179 47.7406 15.3194C47.4013 15.6209 47.1227 15.9886 46.9207 16.4016C46.7188 16.8145 46.5975 17.2646 46.5636 17.7261C46.5298 18.1877 46.584 18.6516 46.7233 19.0914L58.1602 55.1914L63.377 61.8374C62.2422 62.9317 61.1722 64.0958 60.1726 65.3234L54.0446 57.5164L33.0627 30.7804C32.4932 30.0547 31.6685 29.593 30.7701 29.4966C29.8717 29.4002 28.9731 29.6771 28.2718 30.2664L6.85032 48.2784C6.14931 48.8679 5.70327 49.7215 5.61015 50.6514C5.51702 51.5814 5.78453 52.5115 6.35383 53.2374L36.8604 92.1084C37.1423 92.4677 37.4898 92.7659 37.8831 92.9862C38.2764 93.2064 38.7079 93.3443 39.1528 93.3919C39.5976 93.4396 40.0469 93.396 40.4755 93.2638C40.904 93.1316 41.3033 92.9133 41.6503 92.6214L51.7548 84.1214C51.3998 86.3022 51.2214 88.5098 51.2215 90.7214C51.2215 90.8264 51.2215 90.9324 51.2215 91.0384L43.1304 97.8384C41.898 98.8741 40.3188 99.3611 38.7398 99.1923C37.1607 99.0236 35.7108 98.2129 34.7088 96.9384L1.33957 54.4184C0.338951 53.1427 -0.131334 51.5081 0.0317004 49.8736C0.194735 48.2391 0.977894 46.7385 2.20921 45.7014L26.7821 25.0394C28.0145 24.0036 29.5937 23.5166 31.1727 23.6854C32.7518 23.8542 34.2015 24.6649 35.2034 25.9394L50.0179 44.8154L41.6291 18.3354C41.1356 16.7738 41.2612 15.0732 41.9782 13.6073C42.6952 12.1415 43.9449 11.0301 45.4529 10.5174L75.5354 0.307367C77.044 -0.203504 78.6868 -0.0737248 80.1029 0.668207C81.5191 1.41014 82.593 2.70356 83.0885 4.26437L89.4154 24.2354L94.9039 4.71636C95.3484 3.13879 96.3797 1.80838 97.7714 1.01747C99.163 0.226556 100.801 0.039849 102.325 0.498362L132.723 9.65837C133.478 9.88559 134.182 10.2645 134.795 10.7735C135.408 11.2825 135.919 11.9115 136.297 12.6247C136.675 13.3379 136.914 14.1213 137 14.9301C137.086 15.7388 137.017 16.5572 136.797 17.3384L129.089 44.7514L143.664 25.9654C144.659 24.6848 146.104 23.8653 147.682 23.6868C149.26 23.5083 150.841 23.9854 152.08 25.0134L176.764 45.5324C178.001 46.562 178.792 48.0578 178.965 49.6911C179.137 51.3244 178.676 52.9617 177.682 54.2434L144.545 96.9564C143.985 97.6804 143.274 98.2646 142.466 98.6655C141.657 99.0664 140.772 99.2739 139.876 99.2724C138.517 99.2757 137.198 98.7984 136.137 97.9194L136.135 97.9204ZM136.812 87.8874L138.834 81.7364L139.843 82.5744L139.288 84.1054L141.021 85.5464L142.332 84.6464L143.304 85.4544L137.969 88.8544L136.812 87.8874ZM138.668 85.6764C138.436 86.3064 138.185 87.0114 137.944 87.6474L137.968 87.6684C138.52 87.2684 139.121 86.8684 139.658 86.5004L140.244 86.1124L138.907 85.0014L138.668 85.6764ZM27.5666 68.0764L26.2788 50.3924L42.7372 55.3204L43.7776 72.6894L27.5666 68.0764ZM138.009 69.3364C138.009 69.3364 132.723 57.2744 137.429 51.2034C138.456 49.8821 139.947 49.0366 141.576 48.8527C143.205 48.6688 144.837 49.1614 146.115 50.2224C146.933 50.9009 147.57 51.7838 147.966 52.7877C148.363 53.7916 148.506 54.8834 148.382 55.9604C149.372 55.6004 150.434 55.5077 151.468 55.6909C152.503 55.8741 153.475 56.3272 154.293 57.0074C155.57 58.0701 156.387 59.6139 156.565 61.2997C156.743 62.9855 156.267 64.6754 155.242 65.9984C152.766 69.1904 148.131 69.9474 144.293 69.9474C142.187 69.9448 140.085 69.7389 138.015 69.3324L138.009 69.3364ZM10.5369 49.6574L11.6905 48.6874L17.0737 52.0284L16.0698 52.8734L14.7414 51.9884L13.0151 53.4404L13.5947 54.9564L12.6285 55.7704L10.5369 49.6574ZM11.6537 49.9044C11.9107 50.5454 12.1696 51.2394 12.3995 51.8604L12.6422 52.5354L13.9734 51.4164L13.385 51.0314C12.8411 50.6644 12.2258 50.2594 11.6771 49.8854L11.6537 49.9044ZM104.722 50.7524L101.507 49.7834L101.515 47.8414C103.183 47.0414 104.057 44.7504 104.453 43.3304C103.522 43.4881 102.569 43.4276 101.664 43.1534C100.865 42.913 100.12 42.5122 99.4717 41.9738C98.823 41.4355 98.2829 40.77 97.8827 40.0156C97.4825 39.2612 97.2297 38.4325 97.139 37.5769C97.0483 36.7214 97.1213 35.8557 97.3539 35.0294C97.7769 33.526 98.7058 32.2291 99.9725 31.373C101.239 30.517 102.76 30.1585 104.26 30.3624C104.25 29.7095 104.336 29.0589 104.514 28.4324C104.746 27.606 105.133 26.8351 105.653 26.1637C106.173 25.4922 106.816 24.9334 107.545 24.5192C108.273 24.1049 109.074 23.8433 109.9 23.7493C110.727 23.6553 111.563 23.7308 112.362 23.9714C113.974 24.457 115.334 25.5857 116.142 27.1093C116.951 28.6328 117.141 30.4264 116.672 32.0954C116.492 32.7391 116.217 33.3502 115.857 33.9074C117.16 34.6055 118.188 35.7503 118.766 37.146C119.345 38.5418 119.437 40.102 119.028 41.5604C118.558 43.2292 117.468 44.6367 115.996 45.4733C114.524 46.3098 112.791 46.507 111.179 46.0214C110.297 45.7562 109.482 45.2955 108.79 44.6714C108.391 46.0934 107.956 48.4864 108.937 50.0794L107.94 51.7224L104.722 50.7524ZM70.5822 50.0984C71.557 48.3984 70.9513 45.8734 70.4933 44.4984C69.9773 44.8718 69.4109 45.1642 68.8123 45.3664C67.1892 45.9172 65.4212 45.7782 63.8971 44.9799C62.3731 44.1815 61.218 42.7893 60.6856 41.1094C60.3826 40.1564 60.2916 39.1448 60.4198 38.1504V38.1504C60.4198 38.1504 60.4324 38.0504 60.4662 37.8504V37.8244C61.4743 32.9032 63.5225 28.2741 66.4638 24.2694V24.2694C71.1267 25.6931 75.4269 28.1688 79.055 31.5184L79.0675 31.5304C79.2066 31.6694 79.2762 31.7464 79.2762 31.7464C79.9489 32.4684 80.4546 33.3389 80.7553 34.2924C81.019 35.1244 81.1216 36.0021 81.0575 36.8752C80.9934 37.7483 80.7636 38.5998 80.3815 39.3811C79.9994 40.1623 79.4726 40.858 78.8307 41.4284C78.1888 41.9988 77.4446 42.4327 76.6407 42.7054C76.0426 42.9085 75.4189 43.02 74.7896 43.0364C75.2089 44.4244 76.1643 46.8314 77.9226 47.6044L77.9943 49.5444L74.8108 50.6244L71.6285 51.7044L70.5822 50.0984ZM148.233 40.5524L148.789 39.0234L147.056 37.5814L145.745 38.4814L144.772 37.6734L150.108 34.2734L151.267 35.2364L149.245 41.3864L148.233 40.5524ZM148.417 36.6264L147.832 37.0144L149.169 38.1264L149.409 37.4494C149.641 36.8204 149.892 36.1144 150.132 35.4804L150.108 35.4604C149.559 35.8554 148.959 36.2634 148.421 36.6274L148.417 36.6264ZM51.8687 17.2914L53.2804 16.8124L57.1554 21.9244L55.9256 22.3424L54.9894 21.0244L52.8766 21.7414L52.891 23.3704L51.7064 23.7704L51.8687 17.2914ZM52.8242 17.9364C52.8435 18.6304 52.8456 19.3734 52.8485 20.0364L52.8417 20.7564L54.4724 20.2024L54.0552 19.6264C53.6687 19.0814 53.2398 18.4764 52.8563 17.9264L52.8242 17.9364ZM104.523 16.3794L104.469 14.7444L102.334 14.1004L101.456 15.4544L100.26 15.0934L103.931 9.83937L105.358 10.2694L105.768 16.7534L104.523 16.3794ZM103.238 12.6794L102.842 13.2704L104.484 13.7704L104.454 13.0504C104.437 12.3774 104.408 11.6254 104.394 10.9454L104.363 10.9354C104.009 11.5154 103.605 12.1294 103.243 12.6794H103.238Z" fill="black"/>
</svg>
