<svg width="136" height="142" viewBox="0 0 136 142" fill="none" xmlns="http://www.w3.org/2000/svg">
<path d="M39.237 113.448C39.2374 107.881 40.8886 102.439 43.9818 97.8106C47.0749 93.182 51.4712 89.5745 56.6146 87.4443C61.758 85.3142 67.4176 84.7571 72.8776 85.8434C78.3377 86.9297 83.353 89.6107 87.2894 93.5473C91.2257 97.484 93.9064 102.499 94.9923 107.96C96.0782 113.42 95.5207 119.079 93.3902 124.223C91.2597 129.366 87.6519 133.762 83.023 136.855C78.3941 139.947 72.9521 141.598 67.385 141.598C63.6884 141.598 60.028 140.87 56.6128 139.455C53.1976 138.041 50.0945 135.967 47.4807 133.353C44.8668 130.739 42.7935 127.636 41.3791 124.221C39.9646 120.805 39.2367 117.145 39.237 113.448V113.448ZM47.483 113.448C47.483 117.384 48.6501 121.232 50.8368 124.504C53.0234 127.777 56.1314 130.327 59.7676 131.833C63.4039 133.34 67.4051 133.734 71.2653 132.966C75.1255 132.198 78.6714 130.303 81.4544 127.52C84.2375 124.737 86.1328 121.191 86.9006 117.331C87.6685 113.47 87.2744 109.469 85.7682 105.833C84.262 102.197 81.7114 99.0887 78.4389 96.902C75.1663 94.7154 71.3189 93.5483 67.383 93.5483C62.1052 93.5483 57.0436 95.6449 53.3116 99.3769C49.5796 103.109 47.483 108.17 47.483 113.448V113.448ZM93.978 131.482C95.5299 129.199 96.7799 126.724 97.697 124.12C100.981 125.903 104.701 126.725 108.43 126.493C112.16 126.261 115.748 124.983 118.786 122.807C121.824 120.631 124.187 117.643 125.606 114.187C127.026 110.73 127.443 106.944 126.811 103.261C126.18 99.5777 124.524 96.147 122.033 93.3611C119.543 90.5751 116.319 88.5464 112.73 87.507C109.14 86.4676 105.331 86.4595 101.737 87.4837C98.1438 88.5079 94.9111 90.5229 92.409 93.2983C90.6765 91.1486 88.6755 89.23 86.455 87.5893C90.0143 83.7146 94.5884 80.9152 99.6583 79.5089C104.728 78.1026 110.091 78.1456 115.138 79.6331C120.184 81.1207 124.713 83.9931 128.209 87.9244C131.706 91.8557 134.031 96.6885 134.919 101.874C135.808 107.06 135.225 112.391 133.237 117.262C131.249 122.133 127.935 126.35 123.672 129.433C119.409 132.516 114.366 134.342 109.117 134.704C103.869 135.066 98.6233 133.95 93.977 131.481L93.978 131.482ZM0 106.623C-9.56302e-06 100.982 1.69487 95.4716 4.86483 90.8057C8.03479 86.1398 12.5336 82.5339 17.7777 80.4558C23.0219 78.3778 28.7694 77.9233 34.275 79.1514C39.7806 80.3795 44.7901 83.2335 48.654 87.3433C46.4121 88.9547 44.3859 90.8467 42.625 92.9733C40.0908 90.2859 36.8586 88.3568 33.2903 87.4021C29.722 86.4474 25.9584 86.5047 22.4208 87.5675C18.8832 88.6304 15.7112 90.6569 13.26 93.4202C10.8087 96.1836 9.175 99.5746 8.54162 103.214C7.90825 106.853 8.30025 110.596 9.67373 114.025C11.0472 117.454 13.348 120.433 16.3185 122.629C19.289 124.825 22.8119 126.15 26.493 126.457C30.174 126.764 33.8679 126.04 37.161 124.367C38.1007 126.965 39.3726 129.43 40.945 131.701C36.653 133.889 31.8715 134.938 27.0579 134.75C22.2443 134.562 17.5596 133.141 13.4516 130.625C9.34357 128.109 5.94974 124.581 3.59462 120.379C1.2395 116.177 0.00184606 111.441 0 106.623H0ZM49.757 113.447C49.757 109.961 50.7909 106.553 52.7279 103.654C54.6648 100.755 57.418 98.4953 60.6391 97.1611C63.8602 95.8269 67.4046 95.4778 70.8241 96.158C74.2435 96.8382 77.3846 98.5171 79.8499 100.982C82.3152 103.448 83.9941 106.589 84.6743 110.008C85.3545 113.428 85.0054 116.972 83.6712 120.193C82.3369 123.414 80.0775 126.167 77.1786 128.104C74.2797 130.041 70.8715 131.075 67.385 131.075C62.7099 131.075 58.2263 129.218 54.9205 125.913C51.6146 122.607 49.7573 118.123 49.757 113.448V113.447ZM52.032 113.447C52.031 116.484 52.9307 119.453 54.6173 121.979C56.3038 124.505 58.7015 126.473 61.507 127.636C64.3126 128.799 67.4 129.104 70.3787 128.512C73.3575 127.92 76.0937 126.458 78.2415 124.311C80.3893 122.163 81.852 119.428 82.4447 116.449C83.0375 113.47 82.7335 110.383 81.5714 107.577C80.4093 104.771 78.4412 102.373 75.916 100.686C73.3908 98.9985 70.422 98.0981 67.385 98.0983C63.3137 98.0983 59.409 99.7154 56.5299 102.594C53.6507 105.473 52.0328 109.377 52.032 113.448V113.447ZM98.389 121.898C98.5977 121.132 98.778 120.354 98.93 119.566C101.437 121.168 104.355 122.006 107.33 121.98C110.305 121.953 113.208 121.064 115.686 119.418C118.165 117.773 120.112 115.443 121.29 112.711C122.469 109.98 122.829 106.965 122.327 104.033C121.824 101.101 120.48 98.3781 118.459 96.1954C116.438 94.0128 113.826 92.4644 110.941 91.7385C108.056 91.0126 105.022 91.1404 102.208 92.1065C99.3949 93.0726 96.9225 94.8353 95.092 97.1803C94.6867 96.4916 94.257 95.8199 93.803 95.1653C95.9799 92.6221 98.836 90.7515 102.037 89.7721C105.238 88.7928 108.652 88.7452 111.879 89.635C115.106 90.5248 118.014 92.3152 120.26 94.7967C122.507 97.2782 124.001 100.348 124.567 103.648C125.133 106.947 124.748 110.339 123.457 113.428C122.165 116.516 120.021 119.173 117.275 121.088C114.529 123.002 111.294 124.095 107.95 124.239C104.605 124.382 101.289 123.57 98.389 121.898V121.898ZM10.52 106.623C10.5201 103.062 11.5991 99.5836 13.6148 96.6472C15.6305 93.7109 18.4884 91.454 21.812 90.1738C25.1356 88.8937 28.7691 88.6503 32.2337 89.4758C35.6984 90.3013 38.8317 92.157 41.221 94.7983C40.7643 95.4383 40.331 96.0953 39.921 96.7693C38.0423 94.5243 35.561 92.8632 32.7695 91.9817C29.978 91.1002 26.9927 91.0351 24.1654 91.794C21.3382 92.553 18.7868 94.1043 16.812 96.2652C14.8372 98.4262 13.5213 101.107 13.0194 103.991C12.5175 106.875 12.8506 109.842 13.9793 112.543C15.108 115.244 16.9853 117.566 19.3899 119.236C21.7946 120.905 24.6264 121.852 27.5516 121.966C30.4768 122.079 33.3734 121.354 35.9 119.875C36.0573 120.652 36.2427 121.419 36.456 122.175C33.7697 123.61 30.7575 124.325 27.713 124.249C24.6685 124.174 21.6954 123.311 19.0836 121.745C16.4717 120.178 14.31 117.962 12.8093 115.312C11.3085 112.662 10.5198 109.669 10.52 106.623V106.623ZM67.866 122.348C66.4317 122.413 65.0048 122.109 63.721 121.466C62.6175 120.811 61.7454 119.828 61.226 118.654C60.5403 117.04 60.2217 115.294 60.293 113.541C60.293 110.434 60.947 108.158 62.255 106.713C62.9497 105.979 63.7959 105.405 64.7348 105.031C65.6737 104.657 66.6828 104.492 67.692 104.547C68.794 104.506 69.8943 104.667 70.938 105.023C71.7013 105.318 72.3805 105.796 72.916 106.415C73.4746 107.088 73.8836 107.872 74.116 108.715L69.361 109.301C69.3022 108.778 69.0828 108.286 68.733 107.892C68.4389 107.618 68.0489 107.471 67.647 107.481C67.2646 107.483 66.8906 107.594 66.5698 107.802C66.249 108.01 65.9949 108.307 65.838 108.655C65.3978 109.811 65.1633 111.035 65.145 112.271C65.6483 111.742 66.2428 111.307 66.9 110.988C67.5581 110.699 68.2713 110.557 68.99 110.571C69.7177 110.558 70.44 110.698 71.1104 110.981C71.7808 111.265 72.3843 111.685 72.882 112.216C73.4117 112.77 73.8254 113.424 74.0986 114.14C74.3718 114.855 74.4991 115.619 74.473 116.384C74.4858 117.474 74.2098 118.547 73.673 119.495C73.1595 120.413 72.3823 121.155 71.442 121.626C70.3242 122.143 69.1007 122.39 67.87 122.348H67.866ZM65.983 114.27C65.4984 114.864 65.2571 115.619 65.308 116.383C65.2597 117.175 65.5094 117.956 66.008 118.573C66.2192 118.825 66.4835 119.026 66.782 119.164C67.0804 119.301 67.4056 119.37 67.734 119.366C68.0331 119.371 68.3295 119.31 68.6018 119.186C68.874 119.062 69.1153 118.879 69.308 118.65C69.7737 118.039 69.9992 117.279 69.942 116.513C69.9973 115.719 69.764 114.931 69.285 114.294C69.0882 114.052 68.8391 113.858 68.5564 113.726C68.2738 113.594 67.965 113.527 67.653 113.531C67.3376 113.526 67.0248 113.589 66.7362 113.716C66.4477 113.844 66.1903 114.032 65.982 114.269L65.983 114.27ZM107.351 115.978C105.895 116.047 104.441 115.822 103.074 115.317C102.139 114.921 101.353 114.24 100.828 113.371C100.312 112.503 100.046 111.51 100.059 110.5C100.003 109.56 100.262 108.628 100.795 107.851C101.327 107.075 102.103 106.497 103 106.21C102.34 105.892 101.764 105.423 101.319 104.84C100.836 104.143 100.584 103.311 100.598 102.462C100.601 101.731 100.795 101.013 101.159 100.379C101.523 99.7452 102.047 99.2169 102.677 98.8463C103.968 98.0693 105.46 97.693 106.965 97.7653C108.806 97.6221 110.643 98.0957 112.185 99.1113C112.714 99.5024 113.143 100.013 113.436 100.602C113.729 101.191 113.879 101.841 113.872 102.499C113.872 103.29 113.638 104.063 113.199 104.721C112.774 105.318 112.235 105.824 111.613 106.21C112.484 106.596 113.224 107.227 113.745 108.024C114.212 108.774 114.455 109.641 114.445 110.524C114.45 111.385 114.241 112.233 113.838 112.993C113.488 113.693 112.978 114.301 112.348 114.765C111.683 115.214 110.935 115.527 110.148 115.684C109.228 115.885 108.289 115.984 107.348 115.978H107.351ZM105.616 108.385C105.143 108.92 104.9 109.619 104.937 110.331C104.924 110.679 104.98 111.026 105.101 111.352C105.223 111.678 105.408 111.977 105.646 112.231C105.849 112.461 106.099 112.646 106.378 112.773C106.657 112.9 106.96 112.968 107.267 112.97C107.568 112.965 107.864 112.895 108.136 112.766C108.407 112.636 108.648 112.45 108.841 112.219C109.292 111.686 109.538 111.01 109.537 110.311C109.536 109.613 109.287 108.937 108.835 108.405C108.632 108.173 108.382 107.986 108.101 107.858C107.82 107.729 107.516 107.662 107.207 107.66C106.905 107.661 106.607 107.726 106.333 107.85C106.058 107.975 105.814 108.157 105.615 108.384L105.616 108.385ZM105.761 101.304C105.399 101.705 105.2 102.226 105.202 102.766C105.205 103.306 105.408 103.825 105.773 104.223C105.976 104.413 106.215 104.561 106.476 104.657C106.737 104.753 107.015 104.796 107.293 104.782C107.549 104.791 107.804 104.746 108.041 104.651C108.279 104.556 108.495 104.413 108.674 104.23C108.856 104.04 108.997 103.816 109.09 103.57C109.183 103.325 109.225 103.063 109.215 102.8C109.226 102.528 109.182 102.256 109.084 102.001C108.987 101.746 108.84 101.513 108.65 101.317C108.258 100.953 107.743 100.749 107.208 100.747C106.672 100.744 106.156 100.944 105.761 101.305V101.304ZM26.945 115.578V104.212C26.2396 104.757 25.4858 105.236 24.693 105.643C23.814 106.067 22.9011 106.418 21.964 106.69V102.805C23.3208 102.416 24.5946 101.781 25.722 100.932C26.6149 100.202 27.3311 99.2787 27.817 98.2323H31.737V115.578H26.945ZM71.011 78.1493L70.626 80.3383C69.5593 80.2349 68.4793 80.1826 67.386 80.1813C66.608 80.1813 65.837 80.2113 65.073 80.2633L65.613 77.1983L48.253 74.1403L47.3 79.4213C45.2384 77.9656 43.0174 76.7501 40.68 75.7983L53.273 6.16328C53.6274 4.20681 54.7441 2.47113 56.3778 1.33777C58.0115 0.204409 60.0283 -0.233869 61.985 0.119277L125.1 11.5343C127.056 11.8889 128.792 13.0058 129.925 14.6394C131.058 16.273 131.496 18.2897 131.143 20.2463L121.024 76.2343C118.827 75.2533 116.53 74.5156 114.173 74.0343L116.3 62.2473L98.252 59.0673L95.335 75.6453C92.1124 76.9108 89.1074 78.6724 86.429 80.8663L71.011 78.1493ZM71.962 72.7493L89.727 75.8793L92.857 58.1143L75.092 54.9843L71.962 72.7493ZM49.229 68.7493L66.563 71.7983L69.693 54.0333L52.439 50.9983L49.229 68.7493ZM99.206 53.6683L117.278 56.8523L119.421 45.0053C119.656 43.7046 119.364 42.3638 118.611 41.2779C117.858 40.1919 116.704 39.4496 115.403 39.2143L102.174 36.8223L99.206 53.6683ZM76.043 49.5873L93.808 52.7173L96.78 35.8463L79.03 32.6363L76.043 49.5873ZM55.609 33.4653L53.414 45.5983L70.644 48.6343L73.635 31.6583L61.4 29.4483C60.7559 29.331 60.0951 29.342 59.4552 29.4805C58.8154 29.619 58.2091 29.8824 57.6712 30.2555C57.1333 30.6287 56.6743 31.1042 56.3204 31.655C55.9666 32.2058 55.7248 32.8209 55.609 33.4653ZM114.381 19.4363C113.54 19.5727 112.739 19.8896 112.032 20.3652C111.325 20.8408 110.73 21.4637 110.287 22.1913C109.766 23.0452 109.416 23.9925 109.258 24.9803C109.065 25.9534 109.061 26.9545 109.245 27.9293C109.409 28.7763 109.749 29.5792 110.245 30.2853C110.737 30.9702 111.368 31.5428 112.098 31.9653C112.886 32.4219 113.749 32.7339 114.647 32.8863C115.541 33.0557 116.458 33.0675 117.356 32.9213C118.187 32.785 118.981 32.476 119.685 32.0143C120.402 31.5312 121.006 30.897 121.452 30.1563C121.966 29.2958 122.313 28.3457 122.473 27.3563C122.668 26.3751 122.671 25.3653 122.48 24.3833C122.31 23.5342 121.958 22.7322 121.448 22.0323C120.946 21.3564 120.311 20.791 119.581 20.3713C118.801 19.9232 117.948 19.6164 117.061 19.4653C116.583 19.378 116.097 19.3335 115.611 19.3323C115.199 19.3318 114.787 19.3669 114.381 19.4373V19.4363ZM100.833 17.0213C99.938 17.1349 99.0738 17.4223 98.289 17.8673C97.4955 18.3261 96.8103 18.9506 96.28 19.6983C95.683 20.5565 95.289 21.5393 95.128 22.5723C94.9305 23.5512 94.9472 24.5614 95.177 25.5333C95.388 26.3872 95.7859 27.1837 96.342 27.8653C96.9108 28.548 97.6132 29.1071 98.406 29.5083C99.2698 29.9492 100.195 30.257 101.151 30.4213C101.531 30.4897 101.915 30.5371 102.3 30.5633C102.675 30.5899 103.052 30.5965 103.428 30.5833C103.766 30.5713 104.103 30.5379 104.437 30.4833C104.705 30.442 104.968 30.3778 105.225 30.2913C105.534 30.1914 105.82 30.0302 106.065 29.8173C106.29 29.5596 106.43 29.2386 106.465 28.8983L107.231 24.6403C107.281 24.4664 107.292 24.2835 107.262 24.105C107.233 23.9265 107.164 23.7568 107.06 23.6083C106.957 23.4597 106.822 23.3361 106.665 23.2463C106.508 23.1565 106.332 23.1029 106.152 23.0893L102.625 22.4553C102.464 22.4196 102.297 22.4166 102.134 22.4464C101.971 22.4763 101.816 22.5385 101.678 22.6293C101.524 22.755 101.397 22.9105 101.304 23.0864C101.211 23.2623 101.155 23.4551 101.138 23.6533C101.088 23.9217 101.078 24.1961 101.11 24.4673C101.132 24.6871 101.176 24.9042 101.241 25.1153L103.474 25.5153L103.121 27.4773C102.934 27.5333 102.74 27.5639 102.544 27.5683C102.266 27.5792 101.988 27.5581 101.715 27.5053C101.259 27.4271 100.819 27.2718 100.415 27.0463C100.029 26.8301 99.6928 26.5346 99.429 26.1793C99.1511 25.7972 98.9612 25.3584 98.873 24.8943C98.7689 24.3282 98.7743 23.7473 98.889 23.1833C98.9517 22.6691 99.1203 22.1734 99.3841 21.7276C99.648 21.2819 100.001 20.8956 100.422 20.5933C100.859 20.3172 101.346 20.1308 101.855 20.045C102.365 19.9591 102.886 19.9755 103.389 20.0933C103.992 20.1923 104.572 20.4025 105.098 20.7133C105.519 20.9627 105.919 21.247 106.292 21.5633C106.57 21.4434 106.821 21.2689 107.031 21.0503C107.266 20.8057 107.42 20.4945 107.471 20.1593C107.52 19.7985 107.465 19.4312 107.313 19.1005C107.161 18.7698 106.917 18.4895 106.611 18.2923C105.717 17.6476 104.677 17.2353 103.584 17.0923C102.674 16.9273 101.744 16.9054 100.827 17.0273L100.833 17.0213ZM84.6 18.9093C84.7047 19.4426 84.8047 19.9169 84.9 20.3323C84.9953 20.7476 85.11 21.1883 85.244 21.6543L86.552 26.2423C86.6109 26.5116 86.7234 26.7663 86.8828 26.9912C87.0423 27.2161 87.2454 27.4066 87.48 27.5513C87.9237 27.7907 88.4033 27.9568 88.9 28.0433C89.3452 28.132 89.8004 28.1596 90.253 28.1253C90.5825 28.1057 90.9015 28.0025 91.18 27.8253L93.118 17.0983C93.1977 16.8581 93.2177 16.602 93.1762 16.3523C93.1348 16.1027 93.0331 15.8668 92.88 15.6653C92.499 15.3472 92.0331 15.1476 91.54 15.0913C91.2293 15.0369 90.9152 15.0035 90.6 14.9913C90.3599 14.9769 90.1191 14.9769 89.879 14.9913L89.27 18.3723C89.1367 19.1243 89.0087 19.8769 88.886 20.6303C88.7633 21.3836 88.6633 22.1413 88.586 22.9033H88.478C88.3727 22.3699 88.2727 21.8956 88.178 21.4803C88.0833 21.0649 87.9687 20.6243 87.834 20.1583L86.5 15.5653C86.4425 15.2977 86.3313 15.0445 86.1732 14.821C86.015 14.5976 85.8133 14.4085 85.58 14.2653C85.135 14.0206 84.6524 13.8516 84.152 13.7653C83.7124 13.6832 83.2622 13.6751 82.82 13.7413C82.4422 13.7842 82.0882 13.9472 81.81 14.2063L79.932 24.6413C79.8707 24.9266 79.8616 25.2207 79.905 25.5093C79.9405 25.7208 80.0312 25.9191 80.168 26.0843C80.3138 26.2476 80.4996 26.3703 80.707 26.4403C80.9672 26.5326 81.2349 26.6026 81.507 26.6493C81.8178 26.7034 82.1318 26.7368 82.447 26.7493C82.6874 26.7639 82.9286 26.7639 83.169 26.7493L83.751 23.5143C83.8843 22.7623 84.0177 21.9956 84.151 21.2143C84.2843 20.4329 84.3907 19.6619 84.47 18.9013L84.6 18.9093ZM74.632 12.2473L72.654 23.2683C72.5907 23.5641 72.5798 23.8687 72.622 24.1683C72.6568 24.3878 72.7548 24.5925 72.904 24.7573C73.0633 24.9222 73.2578 25.049 73.473 25.1283C73.7426 25.2306 74.0216 25.306 74.306 25.3533C74.6303 25.4113 74.958 25.4487 75.287 25.4653C75.5344 25.4804 75.7826 25.4804 76.03 25.4653L78.011 14.4483C78.0739 14.1524 78.0848 13.8479 78.043 13.5483C78.0081 13.3288 77.9101 13.1241 77.761 12.9593C77.6016 12.7944 77.4071 12.6676 77.192 12.5883C76.9228 12.486 76.6441 12.4106 76.36 12.3633C76.0385 12.3065 75.7133 12.2731 75.387 12.2633C75.054 12.2523 74.808 12.2463 74.649 12.2463L74.632 12.2473ZM61.588 10.0303C61.3286 10.064 61.0802 10.1556 60.861 10.2983C60.7612 10.3744 60.6777 10.4698 60.6157 10.5789C60.5537 10.6881 60.5143 10.8086 60.5 10.9333L58.747 20.6813C58.6797 21.0258 58.729 21.3829 58.8873 21.6962C59.0456 22.0095 59.3038 22.2611 59.621 22.4113C59.8971 22.5814 60.1891 22.724 60.493 22.8373C60.8157 22.9599 61.1437 23.0726 61.477 23.1753C61.8103 23.2779 62.136 23.3653 62.454 23.4373C62.7713 23.5086 63.0483 23.5656 63.285 23.6083C64.8042 23.9763 66.3965 23.9069 67.878 23.4083C68.4413 23.1716 68.9313 22.7891 69.2976 22.3001C69.6639 21.8112 69.8932 21.2334 69.962 20.6263C70.1144 19.9182 69.9891 19.1786 69.612 18.5603C69.2378 17.9614 68.699 17.483 68.06 17.1823C68.6655 17.1034 69.2349 16.8501 69.699 16.4533C70.1461 16.0596 70.4411 15.5218 70.533 14.9333C70.6658 14.3896 70.6484 13.8201 70.4827 13.2855C70.3169 12.7509 70.0091 12.2715 69.592 11.8983C68.4496 11.0013 67.083 10.4351 65.641 10.2613C64.9092 10.1288 64.1708 10.0356 63.429 9.98228C63.151 9.96294 62.889 9.95328 62.643 9.95328C62.2898 9.95064 61.937 9.97639 61.588 10.0303ZM3.924 19.0893C3.77535 18.2657 3.79047 17.4209 3.96848 16.6032C4.14649 15.7855 4.48391 15.0109 4.96145 14.3237C5.43899 13.6364 6.04728 13.05 6.75157 12.598C7.45585 12.146 8.24231 11.8372 9.066 11.6893L46.906 4.88928L45.336 13.4603C45.225 13.5123 45.113 13.5603 45.004 13.6213C44.3253 13.9772 43.7227 14.4623 43.23 15.0493C42.7342 15.6483 42.3734 16.3472 42.172 17.0983C41.9515 17.9587 41.9296 18.8581 42.108 19.7283C42.2413 20.5659 42.5541 21.3648 43.025 22.0703C43.2041 22.3254 43.4048 22.5647 43.625 22.7853L42.168 30.7393L32.278 32.5163L34.932 46.8983L39.36 46.0823L38.46 50.9823L35.774 51.4823L37.074 58.5423L34.61 72.0123L27.242 73.3703C22.7425 73.4864 18.314 74.5187 14.227 76.4043L3.924 19.0893ZM16.561 55.0233L19.272 70.1053L33.972 67.3943L31.2 52.3243L16.561 55.0233ZM17.302 35.2133C16.1969 35.412 15.2159 36.0415 14.5749 36.9634C13.9339 37.8854 13.6854 39.0241 13.884 40.1293L15.737 50.4393L30.353 47.7443L27.7 33.3453L17.302 35.2133ZM14.986 18.6833C14.364 18.795 13.7485 18.9399 13.142 19.1173C12.6378 19.2556 12.151 19.4508 11.691 19.6993C11.4942 19.8028 11.3233 19.9495 11.191 20.1283C11.1338 20.2184 11.0955 20.3192 11.0783 20.4246C11.0611 20.5299 11.0654 20.6376 11.091 20.7413L12.591 29.0203C12.6395 29.3146 12.7847 29.5845 13.0036 29.7871C13.2225 29.9898 13.5028 30.1137 13.8 30.1393C14.07 30.1931 14.3447 30.2202 14.62 30.2203C14.914 30.2203 15.2087 30.2126 15.504 30.1973C15.7993 30.1819 16.0847 30.1549 16.36 30.1163C16.634 30.0789 16.8713 30.0423 17.072 30.0063C18.3914 29.8494 19.6394 29.3224 20.672 28.4863C21.0498 28.1307 21.3262 27.681 21.4726 27.1832C21.619 26.6855 21.6302 26.1578 21.505 25.6543C21.4163 25.0452 21.0969 24.4936 20.613 24.1133C20.1376 23.7474 19.5668 23.5262 18.969 23.4763C19.4276 23.2335 19.806 22.8629 20.058 22.4093C20.2971 21.9634 20.3725 21.4479 20.271 20.9523C20.2154 20.48 20.0326 20.0317 19.7419 19.6553C19.4513 19.2789 19.0639 18.9885 18.621 18.8153C18.0312 18.5973 17.4056 18.4928 16.777 18.5073C16.1756 18.5129 15.5759 18.5721 14.985 18.6843L14.986 18.6833ZM24.142 17.1753C23.8706 17.2256 23.6033 17.2954 23.342 17.3843C23.066 17.4769 22.866 17.5469 22.742 17.5943L24.434 26.9543C24.4711 27.2085 24.5527 27.4543 24.675 27.6803C24.7683 27.8446 24.9072 27.9784 25.075 28.0653C25.2507 28.1495 25.4432 28.1929 25.638 28.1923C25.8826 28.1938 26.1268 28.1714 26.367 28.1253C26.6426 28.0759 26.9148 28.0091 27.182 27.9253C27.3836 27.8652 27.5813 27.7928 27.774 27.7083L26.082 18.3473C26.0443 18.0935 25.9627 17.8482 25.841 17.6223C25.7478 17.4579 25.6088 17.3241 25.441 17.2373C25.2652 17.1533 25.0728 17.1099 24.878 17.1103H24.828C24.5978 17.1112 24.3682 17.133 24.142 17.1753V17.1753ZM30.759 15.9753C30.3848 16.0401 30.0242 16.1672 29.692 16.3513C29.404 16.4975 29.1705 16.7324 29.026 17.0213L30.626 25.8853C30.6619 26.1309 30.7418 26.3681 30.862 26.5853C30.9533 26.743 31.0843 26.874 31.242 26.9653C31.4068 27.0517 31.591 27.094 31.777 27.0883C32.0119 27.0847 32.2461 27.061 32.477 27.0173C32.7408 26.9678 33.001 26.901 33.256 26.8173C33.4515 26.7576 33.6432 26.6862 33.83 26.6033L33.33 23.8553C33.2147 23.2173 33.0943 22.5679 32.969 21.9073C32.8437 21.2466 32.6997 20.6013 32.537 19.9713L32.637 19.9343C32.8797 20.3303 33.1013 20.6779 33.302 20.9773C33.5027 21.2766 33.7247 21.5936 33.968 21.9283L36.368 25.1913C36.4949 25.3881 36.66 25.5575 36.8536 25.6892C37.0472 25.821 37.2653 25.9125 37.495 25.9583C37.9192 26.017 38.3501 26.0069 38.771 25.9283C39.1512 25.8665 39.5212 25.7535 39.871 25.5923C40.1271 25.4797 40.3505 25.3039 40.52 25.0813L38.873 15.9683C38.7683 15.3896 38.5633 15.0329 38.258 14.8983C37.8604 14.7579 37.4303 14.737 37.021 14.8383C36.7572 14.8876 36.4969 14.9544 36.242 15.0383C36.0462 15.0979 35.8541 15.1693 35.667 15.2523L36.186 18.1243C36.3013 18.7623 36.4227 19.3996 36.55 20.0363C36.6773 20.6729 36.8223 21.3063 36.985 21.9363L36.9 21.9703C36.6573 21.5749 36.4357 21.2276 36.235 20.9283C36.0343 20.6289 35.8123 20.3119 35.569 19.9773L33.149 16.7173C33.0237 16.5218 32.8601 16.3538 32.6681 16.2232C32.4762 16.0926 32.2598 16.0021 32.032 15.9573C31.843 15.9286 31.6521 15.9142 31.461 15.9143C31.2256 15.9154 30.9907 15.9371 30.759 15.9793V15.9753ZM115.175 29.9403C114.778 29.8844 114.4 29.7369 114.07 29.5093C113.74 29.2817 113.468 28.9804 113.275 28.6293C112.849 27.6964 112.756 26.6453 113.013 25.6523C113.116 24.6334 113.573 23.6827 114.304 22.9653C114.611 22.7075 114.973 22.5233 115.361 22.4269C115.75 22.3306 116.156 22.3245 116.548 22.4093C116.947 22.4638 117.327 22.6109 117.658 22.839C117.989 23.067 118.263 23.3695 118.456 23.7223C118.874 24.6498 118.964 25.6919 118.711 26.6773C118.605 27.6977 118.153 28.6509 117.428 29.3773C116.964 29.7817 116.368 30.0016 115.752 29.9953C115.558 29.9954 115.365 29.9784 115.174 29.9443L115.175 29.9403ZM15.465 27.7103L15.074 25.5473L16.528 25.2843C16.9343 25.1822 17.3608 25.1937 17.761 25.3173C17.9106 25.3851 18.0394 25.4916 18.1343 25.6256C18.2292 25.7597 18.2868 25.9166 18.301 26.0803C18.3463 26.2585 18.3423 26.4457 18.2894 26.6218C18.2366 26.7979 18.1369 26.9564 18.001 27.0803C17.6807 27.3514 17.2904 27.5268 16.875 27.5863C16.6383 27.6289 16.3887 27.6649 16.126 27.6943C15.979 27.7117 15.8311 27.721 15.683 27.7223C15.6099 27.7234 15.5368 27.7207 15.464 27.7143L15.465 27.7103ZM14.3 21.2983C14.4738 21.2372 14.6511 21.1867 14.831 21.1473C15.059 21.0943 15.262 21.0473 15.44 21.0193C15.8533 20.9148 16.2885 20.9385 16.688 21.0873C16.8288 21.1472 16.952 21.242 17.0459 21.3627C17.1399 21.4834 17.2015 21.6261 17.225 21.7773C17.2643 21.9322 17.2672 22.094 17.2333 22.2502C17.1995 22.4064 17.1299 22.5526 17.03 22.6773C16.7419 22.9524 16.3696 23.1225 15.973 23.1603L14.679 23.3943L14.3 21.2983ZM64.053 20.8613C63.7743 20.8113 63.484 20.7483 63.182 20.6723C62.9304 20.6142 62.6855 20.5304 62.451 20.4223L62.909 17.8753L64.621 18.1833C65.1109 18.2383 65.5764 18.4265 65.967 18.7273C66.1044 18.8635 66.203 19.0339 66.2527 19.2209C66.3025 19.4079 66.3015 19.6048 66.25 19.7913C66.2256 20.0061 66.1433 20.2103 66.0119 20.382C65.8805 20.5537 65.705 20.6865 65.504 20.7663C65.2339 20.8704 64.9464 20.922 64.657 20.9183C64.456 20.9167 64.2556 20.8973 64.058 20.8603L64.053 20.8613ZM64.9 15.5983L63.376 15.3243L63.819 12.8613C64.0359 12.8651 64.2523 12.8825 64.467 12.9133C64.741 12.9486 64.9823 12.9849 65.191 13.0223C65.6899 13.0762 66.1605 13.281 66.54 13.6093C66.6704 13.7334 66.7671 13.8887 66.8212 14.0604C66.8752 14.2322 66.8848 14.4148 66.849 14.5913C66.8283 14.7774 66.7648 14.9562 66.6635 15.1138C66.5622 15.2713 66.4258 15.4032 66.265 15.4993C66.0358 15.6153 65.7807 15.6707 65.524 15.6603C65.3146 15.658 65.1058 15.6373 64.9 15.5983V15.5983Z" fill="black"/>
</svg>
