<svg width="512" height="512" viewBox="0 0 512 512" fill="none" xmlns="http://www.w3.org/2000/svg">
<g clip-path="url(#clip0_480_65)">
<path d="M384.002 0H127.998C79.4772 0 39.9966 39.4806 39.9966 88.0014V344.005C39.9966 392.526 79.4772 432.007 127.998 432.007H198.939L242.28 504.238C248.467 514.557 263.496 514.619 269.72 504.238L313.061 432.007H384.002C432.523 432.007 472.003 392.526 472.003 344.005V88.0014C472.003 39.4806 432.523 0 384.002 0V0ZM390.922 303.745L356.982 337.685C347.461 347.205 334.371 351.995 318.631 351.995C219.041 351.995 68.6111 173.509 130.708 111.412L164.649 77.4712C170.88 71.2201 181.046 71.2171 187.279 77.4712L249.5 139.692C255.75 145.942 255.75 156.072 249.5 162.323L219.569 192.263C227.221 210.537 257.745 241.095 276.13 248.824L306.071 218.893C312.339 212.625 322.467 212.659 328.701 218.893L390.922 281.114C397.172 287.364 397.172 297.495 390.922 303.745V303.745Z" fill="white"/>
<path d="M294.761 275.464C275.791 294.434 240.177 266.131 221.219 247.174C202.274 228.227 173.954 192.587 192.939 173.633L215.559 151.002L175.959 111.412L153.338 134.032C146.308 141.062 146.858 158.222 154.778 178.803C175.203 231.907 236.149 293.06 289.591 313.615C310.171 321.535 327.331 322.085 334.361 315.055L356.982 292.434L317.381 252.834L294.761 275.464Z" fill="white"/>
</g>
<defs>
<clipPath id="clip0_480_65">
<rect width="512" height="512" fill="white"/>
</clipPath>
</defs>
</svg>
