<svg width="650" height="511" viewBox="0 0 650 511" fill="none" xmlns="http://www.w3.org/2000/svg">
<path d="M594.998 78.2733H307.113C303.098 78.2733 299.295 80.0558 296.72 83.1466C294.158 86.2234 293.088 90.2903 293.814 94.2394C295.095 101.225 297.498 128.693 297.498 132.364C297.498 197.944 258.29 256.75 197.609 282.171C192.592 284.27 189.316 289.183 189.316 294.637C189.316 309.545 177.18 321.682 162.271 321.682C150.781 321.682 140.561 314.273 136.823 303.26C135.068 298.07 130.339 294.464 124.872 294.108C86.6939 291.665 50.4844 275.713 22.8969 249.181C18.9744 245.431 13.191 244.347 8.22517 246.487C3.2353 248.615 0 253.501 0 258.928V456.909C0 486.74 24.2584 511 54.0912 511H594.999C624.83 511 649.089 486.74 649.089 456.909V132.364C649.089 102.533 624.83 78.2733 594.998 78.2733ZM54.0912 483.954C39.1824 483.954 27.0462 471.818 27.0462 456.909V404.184C68.342 410.172 100.828 442.658 106.816 483.954H54.0912ZM317.783 281.114H331.307C357.401 281.114 378.636 302.348 378.636 328.443C378.636 352.223 360.945 371.774 338.067 375.088V389.295C338.067 396.769 332.019 402.818 324.544 402.818C317.07 402.818 311.021 396.769 311.021 389.295V375.773H283.976C276.502 375.773 270.453 369.724 270.453 362.25C270.453 354.775 276.502 348.727 283.976 348.727H331.305C342.491 348.727 351.589 339.628 351.589 328.443C351.589 317.257 342.491 308.159 331.305 308.159H317.782C291.688 308.159 270.453 286.924 270.453 260.83C270.453 237.049 288.143 217.498 311.021 214.184V199.977C311.021 192.503 317.07 186.454 324.544 186.454C332.019 186.454 338.067 192.503 338.067 199.977V213.501H365.112C372.587 213.501 378.636 219.549 378.636 227.024C378.636 234.498 372.587 240.547 365.112 240.547H317.783C306.598 240.547 297.499 249.645 297.499 260.831C297.499 272.015 306.598 281.114 317.783 281.114ZM486.817 321.682C471.908 321.682 459.772 309.545 459.772 294.637C459.772 279.728 471.908 267.592 486.817 267.592C501.725 267.592 513.862 279.728 513.862 294.637C513.862 309.545 501.725 321.682 486.817 321.682ZM622.044 456.909C622.044 471.818 609.908 483.954 594.999 483.954H542.274C548.262 442.658 580.748 410.172 622.044 404.184V456.909ZM622.044 185.089C580.748 179.101 548.262 146.615 542.274 105.32H594.999C609.908 105.32 622.044 117.456 622.044 132.364V185.089Z" fill="white"/>
<path fill-rule="evenodd" clip-rule="evenodd" d="M131.449 260.899C203.494 260.899 261.899 202.494 261.899 130.449C261.899 58.4041 203.494 0 131.449 0C59.4041 0 1 58.4041 1 130.449C1 202.494 59.4041 260.899 131.449 260.899ZM125.325 190.053C128.121 193.892 133.847 193.892 136.643 190.053L198.68 104.854C202.049 100.228 198.744 93.7334 193.022 93.7334H68.9464C63.2235 93.7334 59.9189 100.228 63.2876 104.854L125.325 190.053Z" fill="white"/>
</svg>
