<svg width="126" height="133" viewBox="0 0 126 133" fill="none" xmlns="http://www.w3.org/2000/svg">
<path d="M62.907 131.866C58.175 130.705 54.7069 128.286 55.1499 126.466C55.1569 126.436 55.169 126.407 55.178 126.378H55.1721L55.8511 123.611C55.4031 125.435 58.8769 127.854 63.6079 129.011C68.3389 130.168 72.5381 129.635 72.9861 127.811L72.3069 130.577H72.301C72.296 130.607 72.2929 130.637 72.2859 130.668C71.9979 131.84 70.1619 132.481 67.6299 132.481C66.0368 132.463 64.4515 132.257 62.907 131.866V131.866ZM76.239 128.028C76.5401 127.1 76.759 126.148 76.8931 125.182C76.9223 124.729 76.8496 124.275 76.6802 123.854C76.5107 123.433 76.2489 123.055 75.9141 122.748H82.5249C84.7323 122.748 86.8493 121.871 88.4102 120.31C89.971 118.749 90.8479 116.632 90.8479 114.425V112.848H96.2029V114.429C96.2029 118.036 94.7702 121.495 92.2197 124.046C89.6692 126.596 86.21 128.029 82.603 128.029L76.239 128.028ZM24.4509 128.028C20.844 128.028 17.3847 126.595 14.8342 124.045C12.2837 121.494 10.8511 118.035 10.8511 114.428V112.847H16.207V114.424C16.2069 115.517 16.4219 116.599 16.8401 117.609C17.2582 118.619 17.8713 119.536 18.644 120.309C19.4168 121.082 20.3343 121.695 21.344 122.113C22.3537 122.532 23.4361 122.747 24.5291 122.747H52.7881C52.7821 122.772 52.7821 122.776 52.7881 122.747L51.865 126.509H51.873C51.86 126.549 51.8449 126.588 51.8359 126.628C51.7343 127.097 51.7924 127.587 52.001 128.019L24.4509 128.028ZM73.002 127.72H73.0081L72.9871 127.809C72.9941 127.78 73 127.75 73 127.72H73.002ZM64.178 126.691C59.446 125.53 55.9779 123.11 56.4209 121.291C56.8639 119.472 61.0671 118.93 65.7981 120.091C70.5291 121.252 74.0029 123.672 73.5559 125.491C73.2679 126.663 71.4309 127.304 68.8989 127.304C67.3065 127.286 65.7219 127.08 64.178 126.69V126.691ZM55.8779 123.518H55.884C55.874 123.548 55.863 123.577 55.856 123.606L55.8779 123.518ZM37 119.578C36.994 119.561 36.9901 119.544 36.9861 119.526L36.4409 117.943C36.7999 118.987 39.2881 119.076 41.9961 118.143C44.7041 117.21 46.6081 115.605 46.2471 114.561L46.793 116.145C46.8 116.162 46.808 116.178 46.814 116.194C47.174 117.238 45.27 118.842 42.562 119.776C41.4591 120.174 40.2992 120.392 39.127 120.422C38 120.424 37.192 120.139 37 119.578ZM36.418 117.893C36.423 117.91 36.4271 117.928 36.4331 117.945L36.418 117.893ZM35.978 116.616C35.618 115.572 37.521 113.969 40.23 113.034C42.939 112.099 45.4299 112.188 45.7849 113.234C46.1399 114.28 44.241 115.882 41.533 116.816C40.4301 117.215 39.2702 117.433 38.0979 117.463C36.9739 117.461 36.1701 117.176 35.9771 116.616H35.978ZM46.24 114.553V114.561V114.553ZM46.2219 114.511L46.2371 114.554C46.2341 114.538 46.2269 114.525 46.2209 114.51L46.2219 114.511ZM59.4919 113.939C55.5449 113.916 52.3521 112.664 52.3601 111.139C52.3601 111.114 52.36 111.09 52.366 111.065L52.3799 108.757C52.3709 110.278 55.564 111.53 59.511 111.557C63.458 111.584 66.6661 110.366 66.6741 108.844C66.6741 108.819 66.6741 108.794 66.6741 108.769V108.844L66.6609 111.151C66.6609 111.176 66.6609 111.2 66.6609 111.226C66.6519 112.733 63.5049 113.939 59.6079 113.939H59.4919ZM59.5181 109.621C56.4491 109.603 53.8371 108.842 52.8311 107.789H4.38989C3.81336 107.789 3.24245 107.676 2.70972 107.456C2.17699 107.235 1.69287 106.912 1.28516 106.504C0.877442 106.097 0.554278 105.613 0.333741 105.08C0.113203 104.547 -0.000262514 103.977 4.56052e-07 103.4V53.673C4.56052e-07 53.624 4.56052e-07 53.573 4.56052e-07 53.526C0.000530876 39.3298 5.64032 25.7153 15.6787 15.6773C25.7171 5.63926 39.3319 -9.90914e-09 53.5281 0C67.7244 -2.47732e-09 81.3393 5.6394 91.3777 15.6776C101.416 25.7159 107.056 39.3307 107.056 53.527C107.056 53.576 107.056 53.627 107.056 53.674V103.4C107.056 103.976 106.942 104.547 106.722 105.079C106.501 105.611 106.178 106.095 105.771 106.502C105.363 106.91 104.88 107.233 104.347 107.453C103.815 107.674 103.244 107.787 102.668 107.787H66.3C65.349 108.857 62.7269 109.62 59.6299 109.62L59.5181 109.621ZM8.50806 58.231V95.974C8.47859 96.8015 8.77852 97.6068 9.34204 98.2135C9.90556 98.8201 10.6865 99.1785 11.5139 99.21H95.6931C96.5204 99.1782 97.3013 98.8198 97.8647 98.2132C98.4282 97.6066 98.7282 96.8014 98.699 95.974V58.231C98.7282 57.4036 98.4282 56.5984 97.8647 55.9918C97.3013 55.3852 96.5204 55.0268 95.6931 54.995H11.5139C10.6862 55.026 9.90452 55.3842 9.34058 55.9908C8.77663 56.5975 8.47665 57.4032 8.5061 58.231H8.50806ZM11.0249 41.731C10.9163 42.1151 10.8984 42.5192 10.9722 42.9115C11.0459 43.3038 11.2093 43.6737 11.45 43.9922C11.6906 44.3107 12.0017 44.5692 12.3589 44.7473C12.7161 44.9255 13.1099 45.0184 13.509 45.019H93.552C93.9512 45.0184 94.3449 44.9255 94.7021 44.7473C95.0594 44.5692 95.3705 44.3107 95.6111 43.9922C95.8517 43.6737 96.0151 43.3038 96.0889 42.9115C96.1626 42.5192 96.1444 42.1151 96.0359 41.731C93.4291 32.4643 87.8657 24.3032 80.1924 18.4904C72.5191 12.6776 63.1565 9.53146 53.53 9.53101C43.9027 9.53126 34.5392 12.6778 26.8655 18.4914C19.1917 24.305 13.6282 32.4672 11.022 41.735L11.0249 41.731ZM52.377 108.682C52.377 108.707 52.3721 108.732 52.3721 108.757L52.377 108.682ZM73.147 91.874C72.6481 91.874 72.1697 91.6758 71.8169 91.3231C71.4641 90.9703 71.2661 90.4919 71.2661 89.993V64.277C71.2664 63.7783 71.4647 63.3001 71.8174 62.9476C72.1701 62.595 72.6483 62.397 73.147 62.397H90.696C90.943 62.3969 91.1876 62.4454 91.4158 62.5398C91.644 62.6342 91.8514 62.7727 92.0261 62.9473C92.2008 63.1219 92.3393 63.3292 92.4338 63.5573C92.5284 63.7855 92.5769 64.03 92.5769 64.277V90C92.577 90.2471 92.5286 90.4917 92.4341 90.72C92.3396 90.9483 92.2011 91.1557 92.0264 91.3304C91.8517 91.5051 91.6443 91.6436 91.416 91.7381C91.1877 91.8326 90.9431 91.8811 90.696 91.881L73.147 91.874ZM75.3721 72.83H83.4629V74.862C81.6261 76.3835 80.1788 78.3211 79.2407 80.5139C78.3026 82.7068 77.901 85.0918 78.0691 87.471H83.4629C83.4629 87.471 83.0769 80.536 88.4709 77.453V67.822H75.3711L75.3721 72.83ZM44.9031 91.874C44.6561 91.874 44.4115 91.8253 44.1833 91.7308C43.9552 91.6363 43.7478 91.4977 43.5732 91.323C43.3987 91.1483 43.2602 90.941 43.1658 90.7128C43.0714 90.4845 43.0228 90.24 43.0229 89.993V64.277C43.0229 63.7784 43.2212 63.3002 43.5737 62.9476C43.9263 62.5951 44.4045 62.397 44.9031 62.397H62.4529C62.9515 62.397 63.4299 62.5951 63.7825 62.9476C64.135 63.3002 64.333 63.7784 64.333 64.277V90C64.3331 90.247 64.2846 90.4915 64.1902 90.7198C64.0958 90.948 63.9573 91.1553 63.7827 91.33C63.6081 91.5047 63.4008 91.6433 63.1726 91.7378C62.9445 91.8323 62.6999 91.881 62.4529 91.881L44.9031 91.874ZM47.1289 72.83H55.219V74.862C53.3824 76.3836 51.935 78.3212 50.9971 80.5141C50.0592 82.707 49.6577 85.0919 49.8259 87.471H55.219C55.219 87.471 54.834 80.536 60.228 77.453V67.822H47.1279L47.1289 72.83ZM16.6599 91.874C16.4129 91.8741 16.1682 91.8256 15.9399 91.7311C15.7117 91.6366 15.5043 91.4981 15.3296 91.3234C15.1549 91.1487 15.0164 90.9413 14.9219 90.713C14.8274 90.4847 14.7789 90.24 14.7791 89.993V64.277C14.7791 64.03 14.8276 63.7855 14.9221 63.5573C15.0167 63.3292 15.1554 63.1219 15.3301 62.9473C15.5048 62.7727 15.712 62.6342 15.9402 62.5398C16.1684 62.4454 16.4129 62.3969 16.6599 62.397H34.21C34.7086 62.397 35.1867 62.5951 35.5393 62.9476C35.8919 63.3002 36.0901 63.7784 36.0901 64.277V90C36.0902 90.247 36.0417 90.4915 35.9473 90.7198C35.8528 90.948 35.7144 91.1553 35.5398 91.33C35.3652 91.5047 35.1578 91.6433 34.9297 91.7378C34.7015 91.8323 34.4569 91.881 34.21 91.881L16.6599 91.874ZM18.886 72.83H26.9751V74.862C25.1385 76.3836 23.6911 78.3212 22.7532 80.5141C21.8153 82.707 21.4138 85.0919 21.582 87.471H26.9751C26.9751 87.471 26.5899 80.536 31.9839 77.453V67.822H18.884L18.886 72.83ZM111.02 85.93V63.053H111.457C112.796 63.053 113.88 64.834 113.88 67.029V69.799H121.835C122.35 69.7993 122.844 70.0041 123.208 70.3684C123.573 70.7327 123.778 71.2268 123.778 71.742V77.242C123.778 77.7573 123.573 78.2515 123.209 78.6159C122.845 78.9803 122.35 79.185 121.835 79.185H113.88V81.956C113.88 84.156 112.796 85.931 111.457 85.931L111.02 85.93ZM116.52 66.13V43.558C117.33 43.7932 118.17 43.9127 119.014 43.913C119.857 43.9126 120.696 43.7931 121.506 43.558V66.13H116.52ZM112.707 34.966C112.707 33.2935 113.371 31.6896 114.554 30.507C115.737 29.3244 117.34 28.66 119.013 28.66C119.841 28.6599 120.661 28.8229 121.426 29.1398C122.191 29.4566 122.887 29.9211 123.472 30.5067C124.058 31.0923 124.522 31.7875 124.839 32.5526C125.156 33.3178 125.319 34.1379 125.319 34.966C125.319 35.7942 125.156 36.6143 124.839 37.3795C124.523 38.1447 124.058 38.84 123.472 39.4257C122.887 40.0113 122.192 40.4759 121.427 40.7929C120.661 41.1099 119.841 41.273 119.013 41.273C117.341 41.2749 115.737 40.6125 114.553 39.4317C113.369 38.2508 112.702 36.6481 112.7 34.976L112.707 34.966ZM78.3181 37.707L74.6379 35.033C74.5453 34.9659 74.434 34.9298 74.3196 34.9298C74.2052 34.9298 74.0936 34.9659 74.001 35.033L70.3201 37.707C70.2275 37.7743 70.1159 37.8105 70.0015 37.8105C69.887 37.8105 69.7755 37.7742 69.6829 37.7069C69.5903 37.6397 69.5215 37.5448 69.4861 37.436C69.4507 37.3271 69.4507 37.2098 69.4861 37.101L70.8911 32.775C70.9262 32.6658 70.9256 32.5483 70.8896 32.4395C70.8537 32.3306 70.7841 32.2359 70.6909 32.169L67.012 29.495C66.9196 29.4277 66.8509 29.3329 66.8157 29.2242C66.7804 29.1155 66.7804 28.9984 66.8157 28.8897C66.8509 28.781 66.9196 28.6862 67.012 28.6189C67.1043 28.5516 67.2158 28.5153 67.3301 28.515H71.8789C71.9935 28.5151 72.1053 28.4788 72.198 28.4114C72.2907 28.3441 72.3597 28.249 72.395 28.14L73.801 23.814C73.8364 23.7051 73.9052 23.6102 73.9978 23.5429C74.0904 23.4756 74.2019 23.4394 74.3164 23.4394C74.4309 23.4394 74.5424 23.4756 74.635 23.5429C74.7276 23.6102 74.7967 23.7051 74.832 23.814L76.238 28.14C76.2736 28.2489 76.3427 28.3437 76.4353 28.4111C76.528 28.4784 76.6394 28.5148 76.7539 28.515H81.303C81.4173 28.5151 81.5288 28.5513 81.6213 28.6185C81.7139 28.6857 81.7827 28.7805 81.8181 28.8892C81.8535 28.998 81.8536 29.1151 81.8184 29.224C81.7831 29.3328 81.7145 29.4276 81.6221 29.495L77.9419 32.169C77.8489 32.236 77.7796 32.3307 77.7437 32.4395C77.7077 32.5484 77.707 32.6658 77.7419 32.775L79.147 37.101C79.1735 37.1826 79.1804 37.2693 79.167 37.3541C79.1536 37.4388 79.1202 37.5192 79.0698 37.5886C79.0194 37.6581 78.9531 37.7146 78.8767 37.7536C78.8003 37.7926 78.7157 37.8129 78.6299 37.813C78.5171 37.8152 78.4065 37.7816 78.314 37.717L78.3181 37.707ZM36.8181 37.707L33.1379 35.033C33.0453 34.9659 32.934 34.9298 32.8196 34.9298C32.7052 34.9298 32.5936 34.9659 32.501 35.033L28.8201 37.707C28.7275 37.7743 28.6159 37.8105 28.5015 37.8105C28.387 37.8105 28.2755 37.7742 28.1829 37.7069C28.0903 37.6397 28.0215 37.5448 27.9861 37.436C27.9507 37.3271 27.9507 37.2098 27.9861 37.101L29.3911 32.775C29.4263 32.6658 29.4258 32.5483 29.3899 32.4394C29.3539 32.3304 29.2842 32.2358 29.1909 32.169L25.511 29.495C25.4185 29.4276 25.3497 29.3326 25.3145 29.2237C25.2792 29.1148 25.2794 28.9976 25.3149 28.8888C25.3505 28.78 25.4195 28.6852 25.5122 28.6181C25.6049 28.5509 25.7166 28.5148 25.8311 28.515H30.3789C30.4935 28.5151 30.6053 28.4788 30.698 28.4114C30.7907 28.3441 30.8597 28.249 30.895 28.14L32.301 23.814C32.3364 23.7051 32.4052 23.6102 32.4978 23.5429C32.5904 23.4756 32.7019 23.4394 32.8164 23.4394C32.9309 23.4394 33.0424 23.4756 33.135 23.5429C33.2276 23.6102 33.2967 23.7051 33.332 23.814L34.738 28.14C34.7735 28.249 34.8424 28.3439 34.9351 28.4113C35.0277 28.4786 35.1393 28.5149 35.2539 28.515H39.803C39.9173 28.5151 40.0288 28.5513 40.1213 28.6185C40.2139 28.6857 40.2827 28.7805 40.3181 28.8892C40.3535 28.998 40.3536 29.1151 40.3184 29.224C40.2831 29.3328 40.2145 29.4276 40.1221 29.495L36.4419 32.169C36.3489 32.236 36.2796 32.3307 36.2437 32.4395C36.2077 32.5484 36.207 32.6658 36.2419 32.775L37.6479 37.101C37.6745 37.1827 37.6814 37.2695 37.668 37.3543C37.6545 37.4392 37.6211 37.5196 37.5706 37.589C37.52 37.6585 37.4538 37.715 37.3772 37.7539C37.3006 37.7928 37.2158 37.8131 37.1299 37.813C37.016 37.8158 36.9044 37.7821 36.811 37.717L36.8181 37.707ZM58.644 37.62L53.9441 34.204C53.8257 34.1183 53.6833 34.0721 53.5371 34.0721C53.3909 34.0721 53.2483 34.1183 53.1299 34.204L48.4299 37.62C48.3117 37.7064 48.1691 37.7531 48.0227 37.7533C47.8763 37.7536 47.7335 37.7073 47.615 37.6213C47.4965 37.5353 47.4084 37.4138 47.3633 37.2745C47.3182 37.1352 47.3184 36.9852 47.364 36.846L49.1641 31.318C49.2095 31.179 49.2097 31.0292 49.1646 30.8901C49.1194 30.7511 49.0314 30.6299 48.9131 30.544L44.2129 27.128C44.0944 27.042 44.0063 26.9208 43.9609 26.7815C43.9156 26.6423 43.9155 26.4923 43.9607 26.3531C44.0059 26.2138 44.094 26.0924 44.2124 26.0064C44.3308 25.9203 44.4737 25.874 44.6201 25.874H50.4309C50.5774 25.8742 50.7203 25.8279 50.8389 25.7419C50.9575 25.6558 51.0458 25.5344 51.0911 25.395L52.8911 19.867C52.9364 19.7279 53.0244 19.6066 53.1428 19.5207C53.2612 19.4347 53.4037 19.3884 53.55 19.3884C53.6964 19.3884 53.8389 19.4347 53.9573 19.5207C54.0757 19.6066 54.1637 19.7279 54.209 19.867L56.009 25.395C56.0544 25.5341 56.1424 25.6554 56.2607 25.7414C56.3791 25.8274 56.5217 25.8738 56.668 25.874H62.48C62.6265 25.8737 62.7693 25.9199 62.8879 26.0059C63.0065 26.0919 63.0948 26.2133 63.1401 26.3526C63.1855 26.4919 63.1854 26.642 63.1401 26.7813C63.0948 26.9206 63.0065 27.042 62.8879 27.128L58.188 30.544C58.0698 30.63 57.9818 30.7512 57.9365 30.8902C57.8913 31.0292 57.8912 31.1789 57.936 31.318L59.7361 36.846C59.7689 36.9503 59.7766 37.0608 59.759 37.1687C59.7414 37.2767 59.6988 37.379 59.6345 37.4674C59.5703 37.5559 59.4863 37.6281 59.3892 37.6782C59.292 37.7283 59.1843 37.7549 59.075 37.756C58.9188 37.7654 58.7642 37.7209 58.637 37.63L58.644 37.62Z" fill="black"/>
</svg>
