<?xml version="1.0" encoding="utf-8"?>
<!-- Generator: Adobe Illustrator 26.1.0, SVG Export Plug-In . SVG Version: 6.00 Build 0)  -->
<svg version="1.1" id="Layer_1" xmlns="http://www.w3.org/2000/svg" xmlns:xlink="http://www.w3.org/1999/xlink" x="0px" y="0px"
	 viewBox="0 0 800 800" style="enable-background:new 0 0 800 800;" xml:space="preserve">
<style type="text/css">
	.st0{fill:#0AFF26;}
	
		.st1{opacity:0.15;fill:none;stroke:#000000;stroke-width:33.8964;stroke-linecap:round;stroke-miterlimit:112.988;enable-background:new    ;}
	.st2{fill:none;stroke:#FFE98A;stroke-width:33.8964;stroke-linecap:round;stroke-miterlimit:112.988;}
</style>
<line id="Line_2" class="st0" x1="213.5" y1="132.4" x2="363.7" y2="230.4"/>
<path id="Path_12" class="st1" d="M180.2,140.5l461.2,301c10.3,5.9,13.8,19.1,7.9,29.4c-1.9,3.3-4.6,6-7.9,7.9l-461.2,301
	c-10.2,6-23.4,2.5-29.4-7.7c-1.9-3.3-2.9-7.1-2.9-10.9v-602c-0.1-11.9,9.5-21.5,21.4-21.6C173.1,137.6,176.9,138.6,180.2,140.5z"/>
<path id="Path_13" class="st2" d="M180.2,20.2l461.2,301c10.3,5.9,13.8,19.1,7.9,29.4c-1.9,3.3-4.6,6-7.9,7.9l-461.2,301
	c-10.3,5.9-23.5,2.4-29.4-7.9c-1.9-3.3-2.9-7-2.9-10.8v-602c0-11.9,9.6-21.5,21.5-21.5C173.2,17.3,176.9,18.3,180.2,20.2z"/>
</svg>
