<svg width="659" height="604" viewBox="0 0 659 604" fill="none" xmlns="http://www.w3.org/2000/svg">
<path d="M183.775 113.229L430.802 45.8007L417.72 19.3583C409.161 2.17077 388.286 -4.92693 371.098 3.63206L149.956 113.229H183.775Z" fill="black"/>
<path d="M507.485 47.7491C504.424 47.7491 501.362 48.1666 498.3 49.0016L440.267 64.8671L263.032 113.229H464.203H551.881L541.025 73.426C536.85 57.9085 522.794 47.7491 507.485 47.7491Z" fill="black"/>
<path d="M647.282 300.622C643.803 297.421 639.697 294.986 635.105 293.385C631.555 292.203 627.798 291.507 623.832 291.507H622.927H622.231H611.446H572.547H416.398C397.192 291.507 381.606 307.093 381.606 326.3V343.626V354.411V365.197V403.747C381.606 422.953 397.192 438.54 416.398 438.54H622.927H623.832C627.798 438.54 631.556 437.844 635.105 436.661C639.697 435.13 643.803 432.625 647.282 429.424C654.241 423.092 658.624 413.907 658.624 403.748V326.3C658.624 316.139 654.241 306.953 647.282 300.622ZM489.045 371.947C489.045 381.55 481.252 389.343 471.649 389.343H460.098C450.495 389.343 442.701 381.55 442.701 371.947V360.396C442.701 354.829 445.276 349.888 449.382 346.756C452.374 344.46 456.062 342.999 460.098 342.999H463.02H471.649C481.252 342.999 489.045 350.792 489.045 360.396V371.947Z" fill="black"/>
<path fill-rule="evenodd" clip-rule="evenodd" d="M580.202 137.584H588.135C607.34 137.584 622.927 153.171 622.858 172.376V267.36H615.482H604.696H593.91H416.329C413.963 267.36 411.597 267.5 409.301 267.778C395.523 269.378 383.206 275.78 374.021 285.244C363.652 295.891 357.251 310.434 357.251 326.438V350.375V361.161V371.947V403.817C357.251 436.452 383.763 462.964 416.398 462.964H622.858V560.036C622.858 579.242 607.271 594.828 588.065 594.828H232.4C267.648 566.185 290.171 522.487 290.171 473.528C290.171 387.25 220.229 317.309 133.952 317.309C98.2188 317.309 65.2881 329.306 38.9677 349.492V216.215V176.551V172.376C38.9677 169.245 39.4548 166.183 40.2203 163.261C41.4728 158.598 43.6995 154.354 46.6221 150.666C53.024 142.663 62.8355 137.584 73.83 137.584H94.5664H100.759H134.16H173.824H476.311H558.63H569.416H580.202Z" fill="black"/>
<path fill-rule="evenodd" clip-rule="evenodd" d="M251.899 478.051C251.899 547.611 195.509 604 125.949 604C56.3894 604 0 547.611 0 478.051C0 408.491 56.3894 352.101 125.949 352.101C195.509 352.101 251.899 408.491 251.899 478.051ZM100.423 417.18H147.549V454.768H185.137V501.894H147.549V539.483H100.423V501.894H62.8344V454.768H100.423V417.18Z" fill="black"/>
</svg>
