<svg width="129" height="92" viewBox="0 0 129 92" fill="none" xmlns="http://www.w3.org/2000/svg">
<path d="M59.3886 53.2662C61.8407 55.0458 65.1594 55.0458 67.6115 53.2662L123.557 12.6653C129.047 8.68135 126.229 0 119.446 0H7.55431C0.771325 0 -2.04684 8.68135 3.44286 12.6653L59.3886 53.2662Z" fill="black"/>
<path d="M83.4221 46.25L68.3294 57.9331C65.8069 59.886 62.2825 59.886 59.76 57.9331L44.6673 46.25L2.72878 78.7146C-2.54808 82.7996 0.340592 91.25 7.01393 91.25H121.075C127.749 91.25 130.637 82.7996 125.361 78.7146L83.4221 46.25Z" fill="black"/>
<path d="M88.0877 45.0728C87.5488 44.6652 87.5609 43.8515 88.1117 43.4601L124.421 17.6594C125.083 17.189 126 17.6624 126 18.4746V71.7397C126 72.5657 125.055 73.0355 124.397 72.5373L88.0877 45.0728Z" fill="black"/>
<path d="M38.9124 44.9272C39.4513 45.3348 39.4391 46.1485 38.8883 46.5399L2.57927 72.3406C1.91716 72.811 1.00003 72.3376 1.00003 71.5254V18.2603C1.00003 17.4343 1.94459 16.9645 2.6033 17.4627L38.9124 44.9272Z" fill="black"/>
</svg>
